<svg width="20" height="20" viewBox="0 0 50 50" fill="none" xmlns="http://www.w3.org/2000/svg">
<path d="M0 30.582V29.8008C0.251302 29.2669 0.677086 28.9258 1.19141 28.6485C2.03386 28.1927 2.84896 27.6875 3.6888 27.224C3.94922 27.0834 3.97656 26.9232 3.97135 26.6445C3.94531 25.2982 3.94531 23.9527 3.97135 22.6081C3.97135 22.3294 3.94401 22.1693 3.6888 22.0287C2.84896 21.5651 2.03386 21.0586 1.19141 20.6042C0.677086 20.3281 0.253906 19.9844 0 19.4518V18.6706C0.102431 18.4909 0.20573 18.3117 0.309896 18.1328C2.55382 14.2465 4.79775 10.3607 7.04167 6.47528C7.58464 5.53648 8.36719 5.32033 9.30208 5.85028C10.237 6.38023 11.168 6.91148 12.0885 7.46226C12.3177 7.59898 12.4635 7.57945 12.6914 7.44273C13.8633 6.74351 15.043 6.06122 16.2383 5.40627C16.5091 5.25913 16.6042 5.1133 16.599 4.81382C16.582 3.7396 16.5885 2.66538 16.599 1.59116C16.599 0.59507 17.181 0.00783284 18.1719 0.00653076C22.7283 0.00653076 27.2856 0.00653076 31.8437 0.00653076C32.8333 0.00653076 33.4062 0.595071 33.4154 1.59247C33.4154 2.66669 33.4284 3.7409 33.4154 4.81512C33.4154 5.11721 33.513 5.25653 33.78 5.40366C34.9753 6.05905 36.1571 6.7383 37.3255 7.44143C37.556 7.57164 37.7018 7.60028 37.9297 7.46356C38.78 6.95445 39.6432 6.46617 40.5026 5.97137C41.694 5.28257 42.3919 5.46356 43.0729 6.64455C45.3776 10.6472 47.6866 14.6545 50 18.6667V19.4479C49.7396 20.0039 49.2904 20.3399 48.7682 20.6198C47.9271 21.0794 47.1107 21.582 46.2721 22.0521C46.0482 22.1823 46.0182 22.3125 46.0221 22.5547C46.0404 23.9323 46.0404 25.3108 46.0221 26.6901C46.0221 26.931 46.0521 27.069 46.2734 27.1927C47.1107 27.6576 47.9271 28.1615 48.7682 28.625C49.2891 28.9115 49.7461 29.2474 50 29.8034V30.5847C49.9115 30.7357 49.8242 30.8867 49.7396 31.0378C47.4722 34.9657 45.2049 38.8937 42.9375 42.8216C42.4167 43.724 41.6094 43.9271 40.7005 43.4063C39.7695 42.8724 38.8372 42.3425 37.9167 41.7917C37.6875 41.6615 37.5404 41.6784 37.3125 41.8151C36.1406 42.5143 34.9687 43.1979 33.7669 43.8529C33.4961 44 33.3984 44.1419 33.4036 44.4414C33.4206 45.5156 33.4141 46.5899 33.4036 47.6641C33.4036 48.6602 32.8203 49.2487 31.832 49.25C27.2756 49.25 22.7183 49.25 18.1602 49.25C17.1706 49.25 16.5977 48.6602 16.5872 47.6654C16.5872 46.5912 16.5755 45.5169 16.5872 44.4427C16.5872 44.1432 16.4974 43.9974 16.2266 43.8503C15.0312 43.194 13.8494 42.5148 12.681 41.8125C12.4505 41.6745 12.3034 41.6615 12.0768 41.7956C11.2109 42.3164 10.3333 42.8073 9.46093 43.3112C8.32552 43.9623 7.60286 43.7761 6.95573 42.6537L0 30.582ZM22.2253 30.8776C22.2017 30.7258 22.1664 30.5761 22.1198 30.4297C20.5573 26.2787 18.9905 22.1289 17.4193 17.9805C17.3023 17.6378 17.0804 17.3408 16.7849 17.1316C16.4894 16.9223 16.1355 16.8116 15.7734 16.8151C15.0378 16.8151 14.4193 17.2305 14.1315 17.987C12.5447 22.1285 10.9644 26.273 9.39062 30.4206C9.31557 30.6016 9.27772 30.796 9.27932 30.9919C9.28092 31.1879 9.32194 31.3816 9.39994 31.5614C9.47794 31.7412 9.59132 31.9035 9.73333 32.0386C9.87534 32.1736 10.0431 32.2788 10.2266 32.3477C10.9922 32.638 11.7891 32.2682 12.1237 31.4505C12.3581 30.8789 12.5846 30.3034 12.7839 29.7201C12.8802 29.4336 13.0078 29.3125 13.3307 29.3164C14.9583 29.3347 16.5859 29.3307 18.2135 29.3164C18.4883 29.3164 18.6172 29.4024 18.707 29.6576C18.9336 30.3008 19.168 30.944 19.4375 31.5703C19.5687 31.881 19.8053 32.1355 20.1056 32.2889C20.406 32.4423 20.7508 32.4848 21.0794 32.4089C21.4185 32.3264 21.7183 32.1285 21.9274 31.8491C22.1365 31.5697 22.2418 31.2262 22.2253 30.8776ZM26.9635 26.888C27.8164 26.888 28.5951 26.9167 29.3711 26.888C31.9323 26.7787 33.9948 24.7057 34.155 22.1068C34.3086 19.6328 32.4349 17.2448 29.9362 16.9349C28.5404 16.763 27.1133 16.8399 25.7005 16.8255C24.6237 16.8151 24.0482 17.4037 24.0365 18.4831C24.0365 18.9388 24.0365 19.3946 24.0365 19.8503C24.0365 23.4284 24.0365 27.007 24.0365 30.586C24.0291 30.7649 24.0334 30.9441 24.0495 31.1224C24.0917 31.4972 24.2749 31.8419 24.5619 32.0866C24.8489 32.3313 25.2183 32.4577 25.5951 32.4401C25.9654 32.4204 26.314 32.2586 26.5681 31.9884C26.8223 31.7183 26.9625 31.3605 26.9596 30.9896C26.9753 29.6524 26.9635 28.319 26.9635 26.8828V26.888ZM36.0352 24.6354C36.0352 26.7188 36.0352 28.7995 36.0352 30.8776C36.0352 31.5807 36.3815 32.1068 36.9688 32.3373C37.9727 32.7279 38.9609 31.9987 38.9622 30.8425C38.9622 26.7305 38.9622 22.6176 38.9622 18.5039C38.9622 17.4818 38.3659 16.8112 37.4792 16.8177C36.612 16.8281 36.0339 17.4922 36.0325 18.4896C36.0334 20.5347 36.0343 22.5807 36.0352 24.6276V24.6354Z" fill="white"/>
</svg>
