<svg width="20" height="20" viewBox="0 0 20 20" fill="none" xmlns="http://www.w3.org/2000/svg">
<g clip-path="url(#clip0_24_3547)">
<path d="M2.00052 5.43121C2.00052 4.72184 2.00052 4.01246 2.00052 3.30361C2.00052 2.5359 2.53542 2.00153 3.3026 2.00153C4.7283 2.00153 6.15365 2.00153 7.57864 2.00153C8.33646 2.00361 8.87552 2.53486 8.87552 3.28851C8.87865 4.72045 8.87865 6.15205 8.87552 7.5833C8.87552 8.33903 8.33854 8.87444 7.58333 8.87601C6.15139 8.87844 4.71945 8.87844 3.2875 8.87601C2.53542 8.87601 2.0026 8.33538 2 7.57861C2.00052 6.86299 2.00052 6.14736 2.00052 5.43121Z" fill="white"/>
<path d="M14.2031 2.00046C14.8997 2.00046 15.596 2.00046 16.2922 2.00046C17.1021 2.00046 17.6292 2.5213 17.6302 3.32598C17.6302 4.73848 17.6302 6.15064 17.6302 7.56244C17.6302 8.34369 17.0985 8.87494 16.3188 8.87546C14.9 8.87755 13.4811 8.87755 12.062 8.87546C11.2839 8.87546 10.7547 8.34161 10.7537 7.55984C10.7537 6.14734 10.7537 4.73518 10.7537 3.32338C10.7537 2.52963 11.2823 2.00203 12.0745 2.00046C12.7844 1.99942 13.4938 2.00046 14.2031 2.00046Z" fill="white"/>
<path d="M2.00049 14.1796C2.00049 13.477 2.00049 12.7734 2.00049 12.0713C2.00049 11.2796 2.53122 10.7531 3.32549 10.7526C4.73799 10.7526 6.15049 10.7526 7.56299 10.7526C8.34424 10.7526 8.87601 11.2823 8.87705 12.0625C8.87914 13.4812 8.87914 14.9 8.87705 16.3187C8.87549 17.0974 8.3432 17.6286 7.56143 17.6286C6.14268 17.6286 4.72393 17.6286 3.30518 17.6286C2.53695 17.6286 2.00309 17.0942 2.00309 16.3265C2.00049 15.6114 2.00049 14.8953 2.00049 14.1796Z" fill="white"/>
<path d="M14.1953 10.7536C16.0703 10.7479 17.6219 12.2859 17.6302 14.1593C17.6385 16.0661 16.1078 17.6223 14.2182 17.6281C13.7646 17.6316 13.3147 17.5452 12.8946 17.3741C12.4745 17.2029 12.0924 16.9502 11.7704 16.6307C11.4483 16.3111 11.1927 15.931 11.0183 15.5122C10.8439 15.0934 10.7541 14.6442 10.7542 14.1906C10.7505 12.2984 12.2901 10.7578 14.1953 10.7536Z" fill="white"/>
</g>
<defs>
<clipPath id="clip0_24_3547">
<rect width="20" height="20" fill="white"/>
</clipPath>
</defs>
</svg>
