<svg width="20" height="20" viewBox="0 0 50 50" fill="none" xmlns="http://www.w3.org/2000/svg">
<path fill-rule="evenodd" clip-rule="evenodd" d="M27.1757 7.97103C27.7527 8.54703 28.0769 9.32826 28.0769 10.1429H21.9231C21.9231 9.32826 22.2473 8.54703 22.8243 7.97103C23.4013 7.39502 24.184 7.07143 25 7.07143C25.8161 7.07143 26.5987 7.39502 27.1757 7.97103ZM20.6486 5.7992C19.4945 6.95121 18.8462 8.51367 18.8462 10.1429H6.53846C6.13044 10.1429 5.73912 10.3047 5.4506 10.5927C5.16209 10.8807 5 11.2713 5 11.6786C5 12.0859 5.16209 12.4765 5.4506 12.7645C5.73912 13.0525 6.13044 13.2143 6.53846 13.2143H8.27385L11.9815 40.3596C12.233 42.1992 13.1437 43.8855 14.5449 45.1064C15.9462 46.3272 17.7431 47 19.6031 47H28.5718C26.9769 45.3007 26 43.0144 26 40.5C26 38.2572 26.7772 36.196 28.0769 34.5709V20.8929C28.0769 20.4856 28.239 20.0949 28.5275 19.8069C28.816 19.5189 29.2074 19.3571 29.6154 19.3571C30.0234 19.3571 30.4147 19.5189 30.7032 19.8069C30.9918 20.0949 31.1538 20.4856 31.1538 20.8929V32.0502C32.4562 31.379 33.9339 31 35.5 31C36.8106 31 38.0592 31.2654 39.195 31.7454L41.7262 13.2143H43.4615C43.8696 13.2143 44.2609 13.0525 44.5494 12.7645C44.8379 12.4765 45 12.0859 45 11.6786C45 11.2713 44.8379 10.8807 44.5494 10.5927C44.2609 10.3047 43.8696 10.1429 43.4615 10.1429H31.1538C31.1538 8.51367 30.5055 6.95121 29.3514 5.7992C28.1974 4.64719 26.6321 4 25 4C23.3679 4 21.8026 4.64719 20.6486 5.7992ZM21.4725 19.8069C21.761 20.0949 21.9231 20.4856 21.9231 20.8929V36.25C21.9231 36.6573 21.761 37.0479 21.4725 37.3359C21.184 37.6239 20.7926 37.7857 20.3846 37.7857C19.9766 37.7857 19.5853 37.6239 19.2968 37.3359C19.0082 37.0479 18.8462 36.6573 18.8462 36.25V20.8929C18.8462 20.4856 19.0082 20.0949 19.2968 19.8069C19.5853 19.5189 19.9766 19.3571 20.3846 19.3571C20.7926 19.3571 21.184 19.5189 21.4725 19.8069Z" fill="#5B89FF"/>
<path d="M34.7744 47.9991C34.0768 47.8144 33.3516 47.7018 32.6873 47.4358C31.1735 46.8254 29.9006 45.7366 29.0625 44.3353C28.2243 42.934 27.8668 41.2969 28.0445 39.6734C28.2221 38.0499 28.9251 36.5291 30.0465 35.3424C31.1678 34.1558 32.6459 33.3684 34.2558 33.1003C38.8092 32.3616 42.929 35.7955 42.9991 40.3946C43.0582 44.1802 40.1932 47.482 36.4564 47.9354C36.3791 47.9507 36.3032 47.9723 36.2294 48L34.7744 47.9991ZM38.3544 37.0567L34.4422 41.1074L32.5572 38.9837L31.0052 40.3585L34.3749 44.1719L39.7402 38.6116L38.3544 37.0567Z" fill="#00C696"/>
</svg>
