<svg width="20" height="20" viewBox="0 0 20 20" fill="none" xmlns="http://www.w3.org/2000/svg">
<path d="M9.16659 4.16667H4.99992C4.55789 4.16667 4.13397 4.34226 3.82141 4.65482C3.50885 4.96739 3.33325 5.39131 3.33325 5.83334V15C3.33325 15.442 3.50885 15.866 3.82141 16.1785C4.13397 16.4911 4.55789 16.6667 4.99992 16.6667H14.1666C14.6086 16.6667 15.0325 16.4911 15.3451 16.1785C15.6577 15.866 15.8333 15.442 15.8333 15V10.8333M14.6549 2.98834C14.8087 2.82915 14.9926 2.70218 15.1959 2.61483C15.3993 2.52749 15.618 2.48151 15.8393 2.47959C16.0605 2.47766 16.28 2.51983 16.4848 2.60363C16.6897 2.68744 16.8758 2.81119 17.0322 2.96768C17.1887 3.12417 17.3125 3.31025 17.3963 3.51508C17.4801 3.71991 17.5223 3.93937 17.5203 4.16067C17.5184 4.38197 17.4724 4.60067 17.3851 4.80401C17.2977 5.00735 17.1708 5.19126 17.0116 5.345L9.85659 12.5H7.49992V10.1433L14.6549 2.98834Z" stroke="#2E65F3" stroke-width="1.4" stroke-linecap="round" stroke-linejoin="round"/>
</svg>
