<svg width="18" height="14" viewBox="0 0 18 14" fill="none" xmlns="http://www.w3.org/2000/svg">
<path d="M16 0H2C1.0375 0 0.25875 0.7875 0.25875 1.75L0.25 12.25C0.25 13.2125 1.0375 14 2 14H16C16.9625 14 17.75 13.2125 17.75 12.25V1.75C17.75 0.7875 16.9625 0 16 0ZM15.65 3.71875L9.46375 7.58625C9.18375 7.76125 8.81625 7.76125 8.53625 7.58625L2.35 3.71875C2.26226 3.6695 2.18543 3.60295 2.12415 3.52315C2.06288 3.44334 2.01843 3.35193 1.9935 3.25445C1.96858 3.15697 1.96369 3.05544 1.97914 2.95602C1.99458 2.85659 2.03004 2.76134 2.08337 2.67601C2.1367 2.59069 2.20678 2.51707 2.28939 2.45962C2.37199 2.40217 2.46539 2.36207 2.56393 2.34176C2.66248 2.32145 2.76412 2.32135 2.86271 2.34145C2.9613 2.36156 3.05478 2.40147 3.1375 2.45875L9 6.125L14.8625 2.45875C14.9452 2.40147 15.0387 2.36156 15.1373 2.34145C15.2359 2.32135 15.3375 2.32145 15.4361 2.34176C15.5346 2.36207 15.628 2.40217 15.7106 2.45962C15.7932 2.51707 15.8633 2.59069 15.9166 2.67601C15.97 2.76134 16.0054 2.85659 16.0209 2.95602C16.0363 3.05544 16.0314 3.15697 16.0065 3.25445C15.9816 3.35193 15.9371 3.44334 15.8758 3.52315C15.8146 3.60295 15.7377 3.6695 15.65 3.71875Z" fill="white"/>
</svg>
