<svg width="49" height="49" viewBox="0 0 49 49" fill="none" xmlns="http://www.w3.org/2000/svg">
<g filter="url(#filter0_d_13_3523)">
<circle cx="24.5" cy="20.5" r="12.5" fill="#61E9D3"/>
</g>
<path d="M23.6177 16.1772L27.6694 19.9619C27.7454 20.0323 27.8057 20.116 27.8468 20.2083C27.8879 20.3005 27.9091 20.3994 27.9091 20.4994C27.9091 20.5993 27.8879 20.6982 27.8468 20.7905C27.8057 20.8827 27.7454 20.9664 27.6694 21.0368L23.6177 24.8216C23.5424 24.8925 23.4527 24.9488 23.354 24.9873C23.2552 25.0257 23.1493 25.0455 23.0423 25.0455C22.9354 25.0455 22.8294 25.0257 22.7307 24.9873C22.632 24.9488 22.5423 24.8925 22.467 24.8216C22.391 24.7512 22.3308 24.6675 22.2896 24.5752C22.2485 24.483 22.2273 24.3841 22.2273 24.2841C22.2273 24.1842 22.2485 24.0853 22.2896 23.993C22.3308 23.9008 22.391 23.8171 22.467 23.7467L25.9515 20.4994L22.467 17.252C22.3144 17.1095 22.2287 16.9162 22.2287 16.7146C22.2287 16.6148 22.2497 16.516 22.2906 16.4238C22.3315 16.3315 22.3914 16.2477 22.467 16.1772C22.6196 16.0346 22.8265 15.9546 23.0423 15.9546C23.1492 15.9546 23.255 15.9742 23.3537 16.0124C23.4524 16.0506 23.5421 16.1066 23.6177 16.1772Z" fill="white"/>
<defs>
<filter id="filter0_d_13_3523" x="0" y="0" width="49" height="49" filterUnits="userSpaceOnUse" color-interpolation-filters="sRGB">
<feFlood flood-opacity="0" result="BackgroundImageFix"/>
<feColorMatrix in="SourceAlpha" type="matrix" values="0 0 0 0 0 0 0 0 0 0 0 0 0 0 0 0 0 0 127 0" result="hardAlpha"/>
<feOffset dy="4"/>
<feGaussianBlur stdDeviation="6"/>
<feComposite in2="hardAlpha" operator="out"/>
<feColorMatrix type="matrix" values="0 0 0 0 0 0 0 0 0 0 0 0 0 0 0 0 0 0 0.25 0"/>
<feBlend mode="normal" in2="BackgroundImageFix" result="effect1_dropShadow_13_3523"/>
<feBlend mode="normal" in="SourceGraphic" in2="effect1_dropShadow_13_3523" result="shape"/>
</filter>
</defs>
</svg>
