<svg width="25" height="25" viewBox="0 0 488 488" fill="none" xmlns="http://www.w3.org/2000/svg">
<path d="M487.149 225.44V262.54C486.749 263.314 486.434 264.128 486.209 264.97C484.589 275.28 483.609 285.74 481.349 295.9C452.149 427.59 321.909 510.65 190.999 481.29C59.5789 451.81 -23.3411 321.85 5.84889 191.08C28.0289 91.74 107.689 17.8 208.999 2.53C214.219 1.74 219.419 0.84 224.629 0H261.729C262.502 0.407679 263.326 0.710351 264.179 0.9C282.409 2.33 300.399 5.43 317.589 11.55C411.429 44.91 467.359 110.55 484.589 208.85C485.589 214.36 486.329 219.91 487.149 225.44ZM195.629 253.04V411.84H261.499V252.99H304.849C306.769 234.2 308.639 215.88 310.559 196.99H261.489C261.489 186.43 261.489 176.33 261.489 166.23C261.437 164.168 261.54 162.106 261.799 160.06C262.799 153.7 267.149 149.73 273.799 149.28C278.219 148.98 282.669 149.06 287.099 149.04C294.819 149.04 302.529 149.04 310.449 149.04V94.89C291.739 94.89 273.359 94.23 255.049 95.04C220.439 96.55 197.379 120.2 196.049 154.73C195.579 167.07 195.709 179.44 195.539 191.79C195.539 193.45 195.379 195.11 195.279 197.06H164.609V253.06L195.629 253.04Z" fill="#FCFDFD"/>
<path d="M195.659 253.04H164.659V197.04H195.329C195.429 195.09 195.569 193.43 195.589 191.77C195.759 179.42 195.589 167.05 196.099 154.71C197.409 120.18 220.469 96.53 255.099 95.02C273.409 94.21 291.789 94.87 310.499 94.87V149.03C302.579 149.03 294.869 149.03 287.149 149.03C282.719 149.03 278.269 148.97 273.849 149.27C267.239 149.72 262.909 153.69 261.849 160.05C261.591 162.096 261.487 164.158 261.539 166.22C261.539 176.32 261.539 186.42 261.539 196.98H310.609C308.689 215.85 306.819 234.17 304.899 252.98H261.549V411.84H195.679L195.659 253.04Z" fill="#4676ED"/>
</svg>
