<svg width="20" height="20" viewBox="0 0 17 18" fill="none" xmlns="http://www.w3.org/2000/svg">
<g clip-path="url(#clip0_265_142)">
<path d="M12.4717 18C12.1173 17.9063 11.7488 17.8491 11.4113 17.7141C10.6422 17.4042 9.99546 16.8514 9.56961 16.14C9.14376 15.4286 8.96213 14.5975 9.05238 13.7733C9.14263 12.9491 9.49982 12.177 10.0695 11.5746C10.6393 10.9721 11.3903 10.5724 12.2082 10.4363C14.5217 10.0613 16.6148 11.8046 16.6505 14.1394C16.6805 16.0613 15.2249 17.7375 13.3263 17.9677C13.287 17.9755 13.2484 17.9864 13.211 18.0005L12.4717 18ZM14.2906 12.4449L12.3029 14.5013L11.3452 13.4232L10.5567 14.1211L12.2687 16.0571L14.9947 13.2342L14.2906 12.4449Z" fill="white"/>
<path d="M6.45952 0C6.70751 0.0628125 6.96394 0.104062 7.20255 0.192656C8.43828 0.652031 9.21085 1.77703 9.22585 3.11625C9.23007 3.44953 9.23241 3.78281 9.23569 4.1161L9.23991 4.11141H8.18232L8.18842 4.11703C8.18373 4.03547 8.17623 3.95438 8.17435 3.87282C8.16638 3.52781 8.18232 3.18047 8.14857 2.83828C8.05106 1.85109 7.18568 1.07531 6.18481 1.05703C5.17035 1.03781 4.26277 1.77985 4.14557 2.76891C4.09166 3.21375 4.1151 3.66797 4.10338 4.11797L4.10854 4.11235H3.04907L3.05423 4.11797C3.07439 3.57563 3.03642 3.02344 3.12595 2.49281C3.34488 1.20047 4.40247 0.221719 5.6982 0.0332809C5.73041 0.0254982 5.76181 0.014668 5.79196 0.000936986L6.45952 0Z" fill="white"/>
<path d="M9.23555 4.11608H11.7159C11.7281 4.30077 11.7422 4.48499 11.753 4.66921C11.8411 6.18983 11.9297 7.7103 12.0188 9.23062C12.0263 9.35015 12.0033 9.40124 11.8711 9.42749C9.52432 9.89109 7.847 12.0553 7.98013 14.4431C8.01166 15.0647 8.16405 15.6742 8.42877 16.2375C8.45033 16.2844 8.46908 16.3312 8.49674 16.3969C8.43908 16.4011 8.39548 16.4067 8.35188 16.4067C6.47672 16.4067 4.60156 16.4109 2.7264 16.4067C1.43536 16.4034 0.394173 15.6052 0.077271 14.4037C-0.0511775 13.9153 0.0125785 13.4255 0.0397683 12.9356C0.1129 11.6198 0.193531 10.3045 0.270412 8.98874C0.36417 7.36968 0.457928 5.75296 0.551686 4.13858C0.570907 4.12499 0.579816 4.1128 0.589192 4.1128C1.40926 4.1128 2.22917 4.1139 3.04893 4.11608L3.04377 4.11046V6.46874H4.10324V4.11093L4.09808 4.11655C4.16793 4.11327 4.23872 4.10718 4.30763 4.10718C5.37741 4.10718 6.44719 4.10718 7.51697 4.10718C7.73917 4.10718 7.96091 4.11327 8.18312 4.11655L8.17702 4.11093V6.46874H9.22336C9.22336 6.23952 9.22336 6.01827 9.22336 5.79749C9.22711 5.23499 9.23149 4.67249 9.23649 4.10999L9.23555 4.11608Z" fill="white"/>
</g>
<defs>
<clipPath id="clip0_265_142">
<rect width="16.65" height="18" fill="white"/>
</clipPath>
</defs>
</svg>
