<svg width="20" height="20" viewBox="0 0 20 20" fill="none" xmlns="http://www.w3.org/2000/svg">
<path d="M19 7.00726V7.83912C18.987 7.87856 18.977 7.91895 18.97 7.95995C18.9136 8.48604 18.7874 9.00174 18.595 9.49273C18.1473 10.6678 17.4545 11.6845 16.6472 12.6218C14.819 14.7443 12.6387 16.4278 10.2991 17.9057C10.0886 18.039 9.87718 18.0294 9.67186 17.8869C8.69493 17.2038 7.69503 16.5525 6.7467 15.8304C5.24663 14.6875 3.87218 13.3993 2.72696 11.8718C2.07068 10.9995 1.52643 10.0637 1.22689 8.99833C1.12657 8.64258 1.07407 8.27334 1 7.91037V7.04385C1.01325 6.99216 1.02374 6.93977 1.03141 6.88691C1.14204 5.77969 1.51659 4.77357 2.19725 3.90223C3.04526 2.81523 4.13422 2.14416 5.49836 2.03392C7.13672 1.90153 8.46664 2.55239 9.52091 3.82424C9.69342 4.03221 9.84015 4.26232 9.98969 4.46932C10.2377 4.15497 10.4585 3.81799 10.7332 3.53685C12.1207 2.11528 13.7671 1.62762 15.6361 2.29436C17.2941 2.88503 18.2936 4.1593 18.7844 5.86442C18.8898 6.23413 18.9297 6.62551 19 7.00726Z" fill="white"/>
</svg>
