<svg width="25" height="25" viewBox="0 0 25 25" fill="none" xmlns="http://www.w3.org/2000/svg">
<circle cx="12.5" cy="12.5" r="12.5" transform="matrix(-1 0 0 1 25 0)" fill="#61E9D3"/>
<path d="M13.3826 8.17714L9.33083 11.9619C9.25488 12.0323 9.19459 12.116 9.15345 12.2082C9.11231 12.3005 9.09113 12.3994 9.09113 12.4993C9.09113 12.5993 9.11231 12.6982 9.15345 12.7904C9.19459 12.8827 9.25488 12.9664 9.33083 13.0368L13.3826 16.8215C13.4579 16.8925 13.5475 16.9488 13.6463 16.9872C13.745 17.0257 13.8509 17.0454 13.9579 17.0454C14.0649 17.0454 14.1708 17.0257 14.2695 16.9872C14.3683 16.9488 14.4579 16.8925 14.5333 16.8215C14.6092 16.7512 14.6695 16.6674 14.7106 16.5752C14.7518 16.483 14.7729 16.384 14.7729 16.2841C14.7729 16.1842 14.7518 16.0852 14.7106 15.993C14.6695 15.9007 14.6092 15.817 14.5333 15.7467L11.0488 12.4993L14.5333 9.25201C14.6858 9.10948 14.7716 8.91616 14.7716 8.71458C14.7716 8.61477 14.7505 8.51593 14.7096 8.42372C14.6687 8.33151 14.6088 8.24772 14.5333 8.17714C14.3807 8.03461 14.1737 7.95453 13.9579 7.95453C13.8511 7.95453 13.7452 7.97419 13.6465 8.01238C13.5478 8.05058 13.4581 8.10657 13.3826 8.17714Z" fill="white"/>
</svg>
