<svg width="1141" height="191" viewBox="0 0 1141 191" fill="none" xmlns="http://www.w3.org/2000/svg">
<path fill-rule="evenodd" clip-rule="evenodd" d="M6.35704 6.53856C-2.89341 15.9463 -2.02618 29.117 8.81419 39.6826C13.027 43.7671 17.2707 47.8517 21.5739 51.9936C26.5722 56.8044 31.6508 61.6925 36.8546 66.7478C14.4232 79.9526 1.7098 97.5108 0.277823 121.349H43.8561C46.0012 111.793 54.7854 104.359 64.7505 104.234C64.9379 104.232 65.1248 104.232 65.3112 104.235C76.7789 104.399 86.4429 114.116 86.5852 125.655C86.7298 137.378 76.9011 147.365 65.1935 147.509C65.0065 147.512 64.8199 147.512 64.6338 147.509C57.263 147.403 50.6373 143.352 46.8059 137.407H1.08421C7.01057 172.119 39.9952 195.699 74.8682 190.206C101.608 185.864 119.097 169.943 126.902 144.615C134.418 120.444 128.781 98.2998 110.858 80.0633C94.2598 63.1384 77.3778 46.4263 60.5101 29.7284C53.2891 22.58 46.0706 15.4342 38.8782 8.27537C28.6159 -2.14547 15.463 -2.7244 6.35704 6.53856Z" fill="#006BD7"/>
<path d="M130.204 89.6169C130.204 66.7489 130.349 44.0257 130.06 21.1578C129.915 9.14489 120.665 0.17139 108.957 0.0266564C97.9724 -0.118077 88.4329 8.71069 87.7102 20.2894C87.2766 27.2366 87.7102 34.1838 87.4211 41.1311C87.2766 44.0257 88.7219 46.052 90.6009 47.9336C96.3825 53.7229 101.875 59.657 107.801 65.3016C115.751 72.8278 123.7 80.2092 130.204 89.6169Z" fill="#61E9D3"/>
<path d="M173.582 142.1V49.494H210.118C217.112 49.494 223.08 50.7451 228.024 53.2471C232.998 55.719 236.781 59.2309 239.374 63.7829C241.997 68.3046 243.308 73.6253 243.308 79.7447C243.308 85.8944 241.981 91.1849 239.329 95.6162C236.676 100.017 232.832 103.394 227.798 105.745C222.794 108.096 216.735 109.272 209.621 109.272H185.158V93.5362H206.455C210.193 93.5362 213.298 93.0237 215.77 91.9988C218.242 90.9738 220.081 89.4364 221.287 87.3866C222.523 85.3367 223.141 82.7894 223.141 79.7447C223.141 76.6699 222.523 74.0775 221.287 71.9673C220.081 69.8571 218.227 68.2594 215.725 67.1742C213.253 66.0588 210.133 65.5011 206.365 65.5011H193.161V142.1H173.582ZM223.593 99.9571L246.609 142.1H224.995L202.476 99.9571H223.593ZM287.316 143.457C280.172 143.457 274.022 142.01 268.867 139.116C263.743 136.192 259.793 132.062 257.02 126.726C254.247 121.36 252.86 115.015 252.86 107.689C252.86 100.545 254.247 94.2747 257.02 88.8787C259.793 83.4828 263.697 79.2775 268.732 76.263C273.796 73.2485 279.735 71.7412 286.547 71.7412C291.129 71.7412 295.395 72.4798 299.344 73.9569C303.323 75.4038 306.79 77.5894 309.744 80.5135C312.728 83.4375 315.05 87.1153 316.708 91.5466C318.366 95.9478 319.195 101.103 319.195 107.011V112.302H260.547V100.364H301.062C301.062 97.5907 300.459 95.1339 299.254 92.9936C298.048 90.8533 296.375 89.1802 294.234 87.9744C292.124 86.7384 289.667 86.1205 286.864 86.1205C283.94 86.1205 281.347 86.7987 279.086 88.1553C276.856 89.4816 275.107 91.2753 273.841 93.5362C272.575 95.7669 271.927 98.2539 271.897 100.997V112.347C271.897 115.783 272.53 118.753 273.796 121.255C275.092 123.757 276.916 125.686 279.267 127.043C281.619 128.399 284.407 129.077 287.633 129.077C289.773 129.077 291.732 128.776 293.511 128.173C295.289 127.57 296.812 126.666 298.078 125.46C299.344 124.254 300.309 122.777 300.972 121.029L318.788 122.204C317.883 126.485 316.029 130.223 313.226 133.418C310.452 136.584 306.865 139.055 302.464 140.834C298.093 142.582 293.044 143.457 287.316 143.457ZM363.146 143.457C356.032 143.457 349.913 141.949 344.788 138.935C339.693 135.89 335.774 131.67 333.031 126.274C330.318 120.878 328.962 114.668 328.962 107.644C328.962 100.53 330.333 94.2898 333.076 88.924C335.85 83.528 339.784 79.3227 344.878 76.3082C349.973 73.2635 356.032 71.7412 363.056 71.7412C369.115 71.7412 374.421 72.8415 378.973 75.0421C383.524 77.2427 387.127 80.3326 389.78 84.3117C392.432 88.2909 393.894 92.9634 394.166 98.3293H375.988C375.476 94.8626 374.119 92.0741 371.919 89.964C369.748 87.8237 366.899 86.7535 363.372 86.7535C360.388 86.7535 357.78 87.5674 355.55 89.1953C353.349 90.793 351.631 93.1292 350.395 96.204C349.159 99.2788 348.541 103.002 348.541 107.373C348.541 111.804 349.144 115.572 350.35 118.677C351.586 121.782 353.319 124.149 355.55 125.776C357.78 127.404 360.388 128.218 363.372 128.218C365.573 128.218 367.548 127.766 369.296 126.862C371.074 125.957 372.537 124.646 373.682 122.928C374.858 121.179 375.626 119.084 375.988 116.642H394.166C393.864 121.948 392.417 126.621 389.825 130.66C387.262 134.669 383.72 137.804 379.199 140.065C374.677 142.326 369.326 143.457 363.146 143.457ZM437.88 143.457C430.856 143.457 424.782 141.964 419.657 138.98C414.563 135.966 410.629 131.775 407.855 126.41C405.082 121.014 403.695 114.758 403.695 107.644C403.695 100.47 405.082 94.1994 407.855 88.8335C410.629 83.4375 414.563 79.2474 419.657 76.263C424.782 73.2485 430.856 71.7412 437.88 71.7412C444.904 71.7412 450.963 73.2485 456.058 76.263C461.182 79.2474 465.131 83.4375 467.905 88.8335C470.678 94.1994 472.065 100.47 472.065 107.644C472.065 114.758 470.678 121.014 467.905 126.41C465.131 131.775 461.182 135.966 456.058 138.98C450.963 141.964 444.904 143.457 437.88 143.457ZM437.97 128.535C441.166 128.535 443.834 127.63 445.974 125.822C448.114 123.983 449.727 121.481 450.812 118.316C451.928 115.15 452.485 111.548 452.485 107.508C452.485 103.469 451.928 99.8667 450.812 96.7014C449.727 93.5362 448.114 91.0341 445.974 89.1953C443.834 87.3564 441.166 86.437 437.97 86.437C434.745 86.437 432.032 87.3564 429.831 89.1953C427.661 91.0341 426.018 93.5362 424.903 96.7014C423.817 99.8667 423.275 103.469 423.275 107.508C423.275 111.548 423.817 115.15 424.903 118.316C426.018 121.481 427.661 123.983 429.831 125.822C432.032 127.63 434.745 128.535 437.97 128.535ZM484.59 142.1V72.6456H502.948V84.8996H503.762C505.209 80.83 507.621 77.6195 510.997 75.2682C514.373 72.9169 518.413 71.7412 523.116 71.7412C527.879 71.7412 531.933 72.9319 535.279 75.3134C538.625 77.6647 540.856 80.8601 541.971 84.8996H542.695C544.112 80.9204 546.674 77.7401 550.382 75.3586C554.12 72.947 558.536 71.7412 563.631 71.7412C570.112 71.7412 575.372 73.8061 579.412 77.936C583.481 82.0358 585.516 87.8538 585.516 95.3901V142.1H566.299V99.1884C566.299 95.3298 565.274 92.4359 563.224 90.5066C561.174 88.5773 558.612 87.6126 555.537 87.6126C552.04 87.6126 549.312 88.728 547.352 90.9588C545.393 93.1594 544.413 96.0684 544.413 99.6858V142.1H525.738V98.7814C525.738 95.375 524.758 92.662 522.799 90.6422C520.87 88.6225 518.322 87.6126 515.157 87.6126C513.017 87.6126 511.088 88.1553 509.369 89.2405C507.681 90.2956 506.34 91.7878 505.345 93.7171C504.35 95.6162 503.853 97.8469 503.853 100.409V142.1H484.59ZM600.732 142.1V72.6456H619.09V84.8996H619.904C621.351 80.83 623.763 77.6195 627.139 75.2682C630.515 72.9169 634.555 71.7412 639.258 71.7412C644.02 71.7412 648.075 72.9319 651.421 75.3134C654.767 77.6647 656.998 80.8601 658.113 84.8996H658.837C660.254 80.9204 662.816 77.7401 666.524 75.3586C670.262 72.947 674.678 71.7412 679.773 71.7412C686.254 71.7412 691.514 73.8061 695.554 77.936C699.623 82.0358 701.658 87.8538 701.658 95.3901V142.1H682.441V99.1884C682.441 95.3298 681.416 92.4359 679.366 90.5066C677.316 88.5773 674.753 87.6126 671.679 87.6126C668.182 87.6126 665.454 88.728 663.494 90.9588C661.535 93.1594 660.555 96.0684 660.555 99.6858V142.1H641.88V98.7814C641.88 95.375 640.9 92.662 638.941 90.6422C637.012 88.6225 634.464 87.6126 631.299 87.6126C629.159 87.6126 627.23 88.1553 625.511 89.2405C623.823 90.2956 622.482 91.7878 621.487 93.7171C620.492 95.6162 619.995 97.8469 619.995 100.409V142.1H600.732ZM748.526 143.457C741.382 143.457 735.232 142.01 730.077 139.116C724.953 136.192 721.004 132.062 718.23 126.726C715.457 121.36 714.07 115.015 714.07 107.689C714.07 100.545 715.457 94.2747 718.23 88.8787C721.004 83.4828 724.908 79.2775 729.942 76.263C735.006 73.2485 740.945 71.7412 747.758 71.7412C752.34 71.7412 756.605 72.4798 760.554 73.9569C764.533 75.4038 768 77.5894 770.954 80.5135C773.939 83.4375 776.26 87.1153 777.918 91.5466C779.576 95.9478 780.405 101.103 780.405 107.011V112.302H721.757V100.364H762.273C762.273 97.5907 761.67 95.1339 760.464 92.9936C759.258 90.8533 757.585 89.1802 755.445 87.9744C753.334 86.7384 750.878 86.1205 748.074 86.1205C745.15 86.1205 742.558 86.7987 740.297 88.1553C738.066 89.4816 736.318 91.2753 735.051 93.5362C733.785 95.7669 733.137 98.2539 733.107 100.997V112.347C733.107 115.783 733.74 118.753 735.006 121.255C736.302 123.757 738.126 125.686 740.478 127.043C742.829 128.399 745.617 129.077 748.843 129.077C750.983 129.077 752.943 128.776 754.721 128.173C756.5 127.57 758.022 126.666 759.288 125.46C760.554 124.254 761.519 122.777 762.182 121.029L779.998 122.204C779.094 126.485 777.24 130.223 774.436 133.418C771.663 136.584 768.075 139.055 763.674 140.834C759.303 142.582 754.254 143.457 748.526 143.457ZM812.238 101.947V142.1H792.975V72.6456H811.334V84.8996H812.148C813.685 80.8601 816.263 77.6647 819.88 75.3134C823.497 72.9319 827.884 71.7412 833.038 71.7412C837.862 71.7412 842.067 72.7963 845.654 74.9064C849.241 77.0166 852.03 80.0311 854.019 83.95C856.009 87.8387 857.004 92.4811 857.004 97.8771V142.1H837.741V101.314C837.771 97.0632 836.686 93.7472 834.485 91.3657C832.285 88.9541 829.255 87.7483 825.397 87.7483C822.804 87.7483 820.513 88.306 818.523 89.4214C816.564 90.5367 815.027 92.1646 813.911 94.3049C812.826 96.415 812.268 98.9623 812.238 101.947ZM897.779 143.231C892.504 143.231 887.726 141.874 883.445 139.161C879.194 136.418 875.818 132.393 873.316 127.088C870.844 121.752 869.608 115.211 869.608 107.463C869.608 99.5049 870.889 92.8881 873.452 87.6126C876.014 82.3071 879.421 78.343 883.671 75.7204C887.952 73.0676 892.639 71.7412 897.734 71.7412C901.622 71.7412 904.863 72.4044 907.456 73.7308C910.078 75.027 912.188 76.6549 913.786 78.6143C915.414 80.5436 916.65 82.4427 917.494 84.3117H918.082V49.494H937.299V142.1H918.308V130.977H917.494C916.59 132.906 915.308 134.82 913.65 136.719C912.023 138.588 909.897 140.141 907.275 141.377C904.682 142.613 901.517 143.231 897.779 143.231ZM903.883 127.902C906.988 127.902 909.611 127.058 911.751 125.37C913.922 123.651 915.58 121.255 916.725 118.18C917.901 115.105 918.489 111.503 918.489 107.373C918.489 103.243 917.916 99.6557 916.77 96.611C915.625 93.5663 913.967 91.215 911.796 89.557C909.626 87.899 906.988 87.07 903.883 87.07C900.718 87.07 898.05 87.9292 895.88 89.6474C893.709 91.3657 892.066 93.7472 890.951 96.7919C889.836 99.8365 889.278 103.364 889.278 107.373C889.278 111.412 889.836 114.984 890.951 118.089C892.097 121.164 893.74 123.576 895.88 125.324C898.05 127.043 900.718 127.902 903.883 127.902Z" fill="black"/>
<path d="M953.499 49.494H977.645L1003.15 111.714H1004.23L1029.74 49.494H1053.88V142.1H1034.89V81.8248H1034.12L1010.16 141.648H997.224L973.259 81.5987H972.49V142.1H953.499V49.494ZM1070.01 142.1V49.494H1132.41V65.6368H1089.59V87.7031H1129.2V103.846H1089.59V125.957H1132.6V142.1H1070.01Z" fill="#61E9D3"/>
</svg>
