<svg width="24" height="34" viewBox="0 0 24 34" fill="none" xmlns="http://www.w3.org/2000/svg">
<path fill-rule="evenodd" clip-rule="evenodd" d="M1.13162 1.16393C-0.515057 2.8386 -0.360681 5.18314 1.56902 7.06392C2.31895 7.79102 3.07439 8.51813 3.84043 9.25544C4.73016 10.1118 5.63419 10.9819 6.56051 11.8818C2.5675 14.2324 0.304375 17.3579 0.0494573 21.6014H7.80685C8.18871 19.9003 9.75239 18.5769 11.5263 18.5547C11.553 18.5544 11.5797 18.5544 11.6063 18.5546C13.6563 18.573 15.3877 20.3072 15.4131 22.3678C15.4388 24.4547 13.6892 26.2325 11.6051 26.2582C10.254 26.2749 9.03255 25.5444 8.33359 24.4598H8.33193H0.192995C1.24793 30.6389 7.11955 34.8364 13.3273 33.8586C18.0872 33.0857 21.2005 30.2516 22.5899 25.7429C23.9278 21.4403 22.9244 17.4984 19.7339 14.2521C16.7792 11.2393 13.7741 8.26438 10.7715 5.29197C9.48602 4.01948 8.20106 2.74745 6.92072 1.4731C5.09394 -0.381915 2.75257 -0.484972 1.13162 1.16393Z" fill="white"/>
<path d="M23.1777 15.9527C23.1777 11.882 23.2034 7.83703 23.152 3.7663C23.1263 1.62788 21.4796 0.0305014 19.3955 0.0047373C17.4401 -0.0210268 15.7419 1.55059 15.6133 3.61172C15.5361 4.84839 15.6133 6.08507 15.5618 7.32175C15.5361 7.83703 15.7934 8.19773 16.1279 8.53267C17.1571 9.56323 18.1348 10.6196 19.1897 11.6244C20.6048 12.9641 22.0199 14.2781 23.1777 15.9527Z" fill="#61E9D3"/>
</svg>
