<svg width="20" height="20" viewBox="0 0 20 20" fill="none" xmlns="http://www.w3.org/2000/svg">
<path d="M14.9445 15.7504C13.3163 17.1975 11.193 17.953 9.02183 17.8575C6.85063 17.7621 4.80101 16.8232 3.30473 15.2387C1.80844 13.6542 0.982301 11.5477 1.00029 9.36298C1.01827 7.17824 1.879 5.08579 3.40118 3.52639C4.92335 1.96699 6.98811 1.06241 9.16058 1.00311C11.3331 0.943813 13.4436 1.73446 15.0477 3.20853C16.6518 4.6826 17.6242 6.725 17.7601 8.90553C17.896 11.0861 17.1847 13.2345 15.7762 14.8983C15.8237 14.9461 15.8633 15.0018 15.9108 15.0417L18.7861 17.9322C18.8502 17.9865 18.9023 18.0537 18.939 18.1294C18.9758 18.2052 18.9964 18.2878 18.9996 18.372C19.0027 18.4562 18.9884 18.5402 18.9574 18.6185C18.9264 18.6968 18.8795 18.7677 18.8197 18.8267C18.7599 18.8858 18.6885 18.9316 18.61 18.9613C18.5315 18.9909 18.4478 19.0038 18.3641 18.999C18.2804 18.9943 18.1986 18.972 18.124 18.9337C18.0493 18.8953 17.9835 18.8417 17.9307 18.7763L15.1108 15.9335L14.9445 15.7504ZM9.6612 2.86627H9.60574C9.17801 2.86627 8.90081 3.08126 8.89289 3.44756C8.88497 3.81385 9.15428 4.03683 9.58201 4.06072C9.94647 4.07481 10.3093 4.11739 10.6672 4.18811C11.844 4.4495 12.8977 5.10463 13.6559 6.04631C14.4142 6.988 14.8322 8.16049 14.8415 9.37201C14.8349 9.45609 14.8458 9.54064 14.8736 9.62023C14.9013 9.69981 14.9453 9.77264 15.0027 9.83412C15.0602 9.89561 15.1297 9.94435 15.207 9.97721C15.2843 10.0101 15.3675 10.0264 15.4514 10.025C15.5353 10.0225 15.6177 10.0022 15.6933 9.9654C15.7688 9.92858 15.8357 9.87608 15.8896 9.81138C15.9435 9.74667 15.9831 9.67122 16.0059 9.59C16.0287 9.50877 16.0341 9.4236 16.0217 9.34013C16.011 8.97463 15.9766 8.61022 15.9188 8.24921C15.6484 6.76638 14.879 5.42214 13.7397 4.44201C12.6003 3.46187 11.1603 2.90553 9.6612 2.86627Z" fill="white"/>
</svg>
