<svg width="100" height="100" viewBox="0 0 100 100" fill="none" xmlns="http://www.w3.org/2000/svg">
<rect width="100" height="100" rx="20" fill="#5B89FF"/>
<path d="M56.1395 43.8041C54.6037 42.2756 52.7817 41.0646 50.7778 40.2402C48.7739 39.4158 46.6273 38.9942 44.4604 38.9995C42.2936 39.0047 40.149 39.4367 38.1491 40.2707C36.1492 41.1048 34.3332 42.3246 32.8047 43.8605C31.2762 45.3963 30.0652 47.2183 29.2408 49.2222C28.4164 51.2261 27.9948 53.3727 28 55.5396C28.0053 57.7064 28.4373 59.851 29.2713 61.8509C30.1054 63.8508 31.3252 65.6668 32.861 67.1953C35.9629 70.2823 40.164 72.0105 44.5402 72C48.9163 71.9894 53.109 70.2408 56.1959 67.139C59.2828 64.0371 61.0111 59.836 61.0005 55.4598C60.99 51.0837 59.2414 46.891 56.1395 43.8041ZM56.1395 43.8041L72.0014 28M72.0014 28H61.0015M72.0014 28V38.9999" stroke="#F8F8F8" stroke-width="4.12496" stroke-linecap="round" stroke-linejoin="round"/>
</svg>
