<svg width="25" height="25" viewBox="0 0 25 25" fill="none" xmlns="http://www.w3.org/2000/svg">
<circle cx="12.5" cy="12.5" r="12.5" fill="#61E9D3"/>
<path d="M11.6177 8.17714L15.6694 11.9619C15.7454 12.0323 15.8057 12.116 15.8468 12.2082C15.8879 12.3005 15.9091 12.3994 15.9091 12.4993C15.9091 12.5993 15.8879 12.6982 15.8468 12.7904C15.8057 12.8827 15.7454 12.9664 15.6694 13.0368L11.6177 16.8215C11.5424 16.8925 11.4527 16.9488 11.354 16.9872C11.2552 17.0257 11.1493 17.0454 11.0423 17.0454C10.9354 17.0454 10.8294 17.0257 10.7307 16.9872C10.632 16.9488 10.5423 16.8925 10.467 16.8215C10.391 16.7512 10.3308 16.6674 10.2896 16.5752C10.2485 16.483 10.2273 16.384 10.2273 16.2841C10.2273 16.1842 10.2485 16.0852 10.2896 15.993C10.3308 15.9007 10.391 15.817 10.467 15.7467L13.9515 12.4993L10.467 9.25201C10.3144 9.10948 10.2287 8.91616 10.2287 8.71458C10.2287 8.61477 10.2497 8.51593 10.2906 8.42372C10.3315 8.33151 10.3914 8.24772 10.467 8.17714C10.6196 8.03461 10.8265 7.95453 11.0423 7.95453C11.1492 7.95453 11.255 7.97419 11.3537 8.01238C11.4524 8.05058 11.5421 8.10657 11.6177 8.17714Z" fill="white"/>
</svg>
