<svg width="36" height="42" viewBox="0 0 36 42" fill="none" xmlns="http://www.w3.org/2000/svg">
<path d="M6 34V16C6 12.8174 7.26428 9.76516 9.51472 7.51472C11.7652 5.26428 14.8174 4 18 4C21.1826 4 24.2348 5.26428 26.4853 7.51472C28.7357 9.76516 30 12.8174 30 16V34M6 34H30H6ZM6 34H2H6ZM30 34H34H30ZM16 40H20H16Z" fill="white"/>
<path d="M6 34V16C6 12.8174 7.26428 9.76516 9.51472 7.51472C11.7652 5.26428 14.8174 4 18 4C21.1826 4 24.2348 5.26428 26.4853 7.51472C28.7357 9.76516 30 12.8174 30 16V34M6 34H30M6 34H2M30 34H34M16 40H20" stroke="white" stroke-width="3" stroke-linecap="round" stroke-linejoin="round"/>
<path d="M17.5 5C18.8807 5 20 3.88071 20 2.5C20 1.11929 18.8807 0 17.5 0C16.1193 0 15 1.11929 15 2.5C15 3.88071 16.1193 5 17.5 5Z" fill="white"/>
</svg>
