<svg width="37" height="41" viewBox="0 0 37 41" fill="none" xmlns="http://www.w3.org/2000/svg">
<path d="M18.136 0H18.6974C18.9203 0.182564 19.1553 0.352259 19.3646 0.550104C19.8385 0.99646 20.2636 1.50314 20.7728 1.90285C22.6469 3.37462 24.8234 4.22873 27.084 4.87856C29.8639 5.67098 32.7357 6.09308 35.6255 6.13398C36.4892 6.14926 36.8332 6.51922 36.8332 7.3677C36.8332 11.7999 36.8468 16.2321 36.8284 20.6643C36.8115 24.6509 35.5894 28.2532 33.1988 31.4259C29.5099 36.3238 24.4866 39.2271 18.7126 40.9627C18.5081 41.016 18.2928 41.0121 18.0903 40.9514C13.2875 39.5319 8.99394 37.2165 5.47504 33.5926C1.88316 29.893 -0.0230459 25.4785 0.000210287 20.267C0.0194568 15.9683 0.000210091 11.6696 0.00502172 7.37091C0.00502172 6.53691 0.352261 6.18385 1.17345 6.13077C2.45655 6.05034 3.75248 5.99646 5.03157 5.84285C7.88406 5.50024 10.6499 4.79733 13.2675 3.59096C14.8128 2.87598 16.2435 1.99051 17.3758 0.679589C17.5955 0.42223 17.8826 0.224385 18.136 0ZM22.5154 18.4414C22.5154 17.7175 22.5298 17.05 22.5154 16.3849C22.4585 14.2456 20.9188 12.5245 18.8931 12.3259C16.7503 12.1136 14.8729 13.4309 14.4391 15.526C14.3012 16.1951 14.3517 16.9053 14.3236 17.5969C14.3124 17.8703 14.3236 18.1446 14.3236 18.4422C13.9692 18.4422 13.6773 18.4349 13.3862 18.4422C12.6973 18.4623 12.2955 18.8564 12.2939 19.548C12.2875 22.2288 12.2875 24.9096 12.2939 27.5905C12.2939 28.2926 12.6837 28.6923 13.3789 28.6931C16.7471 28.7001 20.1133 28.7001 23.4777 28.6931C24.1546 28.6931 24.5483 28.2966 24.5499 27.6194C24.5585 24.9247 24.5585 22.2294 24.5499 19.5335C24.5499 18.8451 24.1393 18.4566 23.4457 18.4389C23.1538 18.4357 22.8675 18.4414 22.5178 18.4414H22.5154Z" fill="#FF5C5C"/>
<path d="M22.4909 26.6414H14.3521V20.5364H22.4909V26.6414Z" fill="#FF5C5C"/>
<path d="M16.3872 18.4172C16.3872 17.6427 16.3447 16.8948 16.3977 16.1541C16.4714 15.1142 17.4249 14.3204 18.4827 14.3477C19.5405 14.3751 20.421 15.2284 20.4547 16.2779C20.4779 16.9816 20.4595 17.687 20.4595 18.4196L16.3872 18.4172Z" fill="#FF5C5C"/>
<rect x="10" y="8" width="17" height="25" fill="#FF5C5C"/>
<path d="M15.0385 13C13.7635 13 12.6604 13.529 11.9733 14.3881C11.2873 15.2477 11 16.3612 11 17.5612V19.3462H12.7308V17.5612C12.7308 16.6496 12.9552 15.9342 13.3256 15.4698C13.6965 15.006 14.1967 14.7308 15.0385 14.7308C15.8825 14.7308 16.3815 14.9904 16.7513 15.4519C17.1206 15.9135 17.3462 16.6404 17.3462 17.5612V18.1923H19.0769V17.5612C19.0769 16.3542 18.7729 15.2281 18.0852 14.3702C17.3981 13.5123 16.3112 13 15.0385 13ZM16.1923 18.7692C15.2369 18.7692 14.4615 19.5446 14.4615 20.5V26.2692C14.4615 27.2246 15.2369 28 16.1923 28H24.2692C25.2246 28 26 27.2246 26 26.2692V20.5C26 19.5446 25.2246 18.7692 24.2692 18.7692H16.1923ZM20.2308 21.6538C20.5368 21.6538 20.8303 21.7754 21.0467 21.9918C21.263 22.2082 21.3846 22.5017 21.3846 22.8077C21.3846 23.2335 21.1515 23.5992 20.8077 23.7994V25.1154C20.8077 25.4333 20.5487 25.6923 20.2308 25.6923C19.9129 25.6923 19.6538 25.4333 19.6538 25.1154V23.7994C19.31 23.5992 19.0769 23.234 19.0769 22.8077C19.0769 22.5017 19.1985 22.2082 19.4149 21.9918C19.6313 21.7754 19.9248 21.6538 20.2308 21.6538Z" fill="white"/>
</svg>
