<svg width="20" height="20" viewBox="0 0 46 36" fill="none" xmlns="http://www.w3.org/2000/svg">
<path d="M0.5 20.5349C0.718749 19.4567 1.39467 18.6788 2.15392 17.9274C7.43862 12.6986 12.7129 7.45823 17.9768 2.2064C19.1527 1.03498 20.508 0.459625 22.1805 0.502201C25.2996 0.576997 28.42 0.588504 31.5403 0.63108C33.1457 0.652943 34.4084 1.28008 35.1445 2.74839C35.317 3.11555 35.434 3.50601 35.4917 3.90715C35.5473 4.24085 35.6526 4.42842 35.9998 4.5573C38.3586 5.43184 40.5773 6.56529 42.509 8.19469C43.5658 9.08649 44.4882 10.0899 45.0866 11.358C46.0982 13.4983 45.2023 15.6513 42.957 16.4361C41.1271 17.0782 39.2683 16.9527 37.4014 16.6501C36.8227 16.5569 36.2568 16.4096 35.6885 16.2727C35.457 16.2163 35.3413 16.2612 35.2058 16.4832C34.8748 17.0103 34.5403 17.5557 34.104 17.9918C28.648 23.4423 23.1816 28.8821 17.7048 34.3112C16.1087 35.8969 14.0543 35.8957 12.4571 34.3112C8.86917 30.7524 5.28123 27.1925 1.69328 23.6314C1.10452 23.043 0.691451 22.3037 0.5 21.4957V20.5349ZM29.6665 10.3914C30.6179 10.9345 31.4952 11.4915 32.4223 11.9518C34.7371 13.1025 37.1549 13.8872 39.7637 13.9828C40.5739 14.0115 41.3702 13.9609 42.1294 13.6283C42.5299 13.4523 42.6757 13.1531 42.4905 12.7872C42.2576 12.2885 41.9645 11.8198 41.6179 11.3914C40.3991 9.99095 38.825 9.05772 37.1931 8.22001C36.6908 7.96225 36.1688 7.74476 35.6225 7.49391V11.4374C35.5514 11.4305 35.4809 11.4178 35.4119 11.3994C33.7221 10.8056 32.111 10.0508 30.6376 9.02895C30.5701 8.97424 30.5146 8.90623 30.4748 8.8292C30.435 8.75216 30.4116 8.66777 30.4061 8.58133C30.3945 6.71027 28.9547 5.43069 27.1087 5.67119C25.7626 5.84609 24.6434 7.16711 24.7013 8.52609C24.7638 9.98404 25.8772 11.1647 27.2672 11.2786C28.2244 11.358 29.0149 11.0277 29.6665 10.3914Z" fill="white"/>
</svg>
