<svg width="50" height="50" viewBox="0 0 50 50" fill="none" xmlns="http://www.w3.org/2000/svg">
<g clip-path="url(#clip0_566_141)">
<path d="M25.5089 49.9876C22.2229 49.9876 18.937 49.9547 15.651 49.9955C11.3964 50.0467 8.36807 47.1696 7.5663 43.9717C7.40356 43.3365 7.31534 42.6846 7.30343 42.029C7.27451 39.6141 7.27451 37.1991 7.30343 34.7842C7.3928 27.7168 11.9274 21.0765 18.4756 18.3926C28.4649 14.2956 39.5543 19.4046 42.9231 29.666C43.5127 31.4806 43.806 33.3783 43.7919 35.2863C43.7919 37.455 43.7985 39.6237 43.7919 41.7911C43.7722 46.3362 40.4061 49.8548 35.8622 49.96C32.4146 50.0402 28.9631 49.9758 25.5141 49.9758L25.5089 49.9876ZM25.5339 46.0326C28.8698 46.0326 32.2056 46.0326 35.5402 46.0326C38.0862 46.0261 39.8356 44.2661 39.8422 41.7175C39.8422 39.5817 39.8685 37.4445 39.8317 35.3086C39.8279 34.3725 39.7399 33.4386 39.5688 32.5182C38.0126 24.7463 30.8334 19.8371 22.9853 21.1475C16.4423 22.2397 11.3294 28.1715 11.236 34.8091C11.2032 37.1593 11.2255 39.5094 11.2269 41.8595C11.2232 42.1056 11.2422 42.3515 11.2834 42.5942C11.6764 44.6591 13.318 46.0208 15.4775 46.0339C18.8305 46.0418 22.1822 46.0339 25.5339 46.0339V46.0326Z" fill="white"/>
<path d="M38.7542 18.7498C37.4964 17.9822 36.2569 17.2409 35.0464 16.472C34.9149 16.3932 34.8413 16.1539 34.8387 15.9883C34.8216 14.7397 34.7914 13.491 34.8387 12.2437C34.9465 9.29288 33.5992 7.1465 31.2149 5.56925C27.2376 2.94049 21.3374 3.57402 18.1697 6.973C16.9106 8.32418 16.2284 9.9159 16.2455 11.7863C16.2586 13.183 16.256 14.5793 16.2376 15.9752C16.2363 16.073 16.2145 16.1695 16.1738 16.2584C16.1331 16.3474 16.0742 16.4268 16.001 16.4917C14.7984 17.2554 13.576 17.9875 12.3457 18.738C12.3236 18.6658 12.3104 18.5912 12.3063 18.5159C12.3063 16.1999 12.2761 13.8827 12.3142 11.5668C12.3733 7.84706 14.0886 4.9712 16.9986 2.77488C22.5006 -1.37725 30.7799 -0.802865 35.5616 4.04982C37.6186 6.13705 38.7503 8.63963 38.7687 11.5983C38.7845 13.8985 38.7687 16.1986 38.7687 18.4975C38.7713 18.5934 38.7582 18.6946 38.7542 18.7498Z" fill="white"/>
<path d="M25.5426 43.2735H15.7321C14.4585 43.2735 13.9932 42.8016 13.9932 41.5135C13.9932 39.3119 13.9722 37.109 14.0024 34.9088C14.0786 29.3805 18.3964 24.5331 23.8694 23.8023C30.2113 22.9545 35.8592 27.0882 36.9436 33.3893C37.0274 33.8752 37.0714 34.3671 37.075 34.8601C37.0908 37.1432 37.0895 39.4276 37.0855 41.7107C37.0855 42.7517 36.5598 43.2708 35.4964 43.2722C32.1772 43.273 28.8593 43.2735 25.5426 43.2735ZM24.2388 34.429C24.2052 34.4128 24.1727 34.3944 24.1415 34.3738C23.5461 33.785 22.9849 33.1567 22.3448 32.6218C21.9871 32.319 21.5583 32.1123 21.0987 32.0211C20.2772 31.8818 19.5215 32.3536 19.1587 33.0726C18.9694 33.4327 18.9004 33.8439 18.9619 34.246C19.0234 34.6482 19.2122 35.02 19.5005 35.307C20.5414 36.3782 21.6035 37.4271 22.6628 38.4812C23.6578 39.4749 24.7658 39.4736 25.7687 38.4734C26.8741 37.3759 27.9742 36.2692 29.0757 35.1664C29.9103 34.3291 30.7647 33.5116 31.573 32.6507C31.8136 32.4063 31.9856 32.1028 32.0716 31.7708C32.1577 31.4388 32.1547 31.09 32.063 30.7595C31.9713 30.429 31.7942 30.1285 31.5494 29.8882C31.3046 29.648 31.0009 29.4765 30.6687 29.391C29.909 29.1873 29.2492 29.4042 28.6972 29.9628C27.2132 31.452 25.7267 32.9346 24.2348 34.4264L24.2388 34.429Z" fill="white"/>
</g>
<defs>
<clipPath id="clip0_566_141">
<rect width="50" height="50" fill="white"/>
</clipPath>
</defs>
</svg>
