<svg width="51" height="50" viewBox="0 0 51 50" fill="none" xmlns="http://www.w3.org/2000/svg">
<g clip-path="url(#clip0_519_130)">
<path d="M36.6769 12.7935C36.6769 15.3241 35.9263 17.7979 34.5199 19.9019C33.1134 22.006 31.1145 23.6458 28.7758 24.6139C26.4371 25.5819 23.8638 25.8349 21.3813 25.3407C18.8989 24.8464 16.6188 23.6272 14.8294 21.8373C13.0401 20.0474 11.8219 17.7671 11.329 15.2849C10.8361 12.8028 11.0905 10.2302 12.0602 7.89261C13.0298 5.55503 14.6711 3.55746 16.7764 2.15256C18.8817 0.747669 21.3565 -0.00143498 23.8877 2.06367e-06C27.2803 0.00192812 30.5333 1.35066 32.9315 3.7497C35.3298 6.14874 36.6769 9.40171 36.6769 12.7935Z" fill="white"/>
<path d="M23.289 47.6825H19.5569C14.3976 47.6825 9.23787 47.6825 4.07762 47.6825C2.08948 47.6825 0.511168 46.4184 0.123132 44.5251C0.0541803 44.1134 0.0288554 43.6955 0.0475656 43.2785C0.0620988 41.9359 -0.02946 40.5774 0.147845 39.2552C0.492282 36.679 2.03716 34.7814 3.99769 33.205C6.45525 31.226 9.30375 30.0084 12.3078 29.1526C18.3056 27.4366 24.395 27.2012 30.5484 28.073C30.7446 28.1006 30.9379 28.15 31.1588 28.1951C31.1374 28.2678 31.1092 28.3384 31.0745 28.4058C29.7287 30.4312 29.098 32.6645 29.0863 35.0895C29.0619 35.3321 28.9528 35.5585 28.7782 35.7288C27.4296 37.1033 26.0751 38.472 24.6973 39.816C24.2311 40.2494 23.8639 40.7783 23.6208 41.3666C23.3778 41.9549 23.2646 42.5887 23.289 43.2247C23.3181 44.6908 23.289 46.1568 23.289 47.6825Z" fill="white"/>
<path d="M25.6143 45.5931C25.6143 44.8128 25.6318 44.0311 25.6143 43.2509C25.5958 42.9165 25.6513 42.5822 25.7769 42.2718C25.9025 41.9613 26.0951 41.6824 26.341 41.455C27.8481 39.9831 29.3087 38.4648 30.8303 37.0074C31.3288 36.5279 31.509 36.0615 31.4727 35.3597C31.2343 30.8075 34.1976 26.8918 38.6215 25.8325C43.7387 24.6062 48.975 28.012 49.8862 33.1701C50.8221 38.4589 47.2484 43.4223 41.9961 44.0849C41.2288 44.1808 40.4411 44.098 39.6708 44.1357C39.45 44.1512 39.2407 44.2402 39.0764 44.3886C37.4458 45.9868 35.821 47.6055 34.2194 49.2386C33.9875 49.4924 33.7026 49.6922 33.3849 49.8237C33.0672 49.9553 32.7245 50.0155 32.381 50C30.7823 49.9695 29.1837 50 27.585 49.9883C26.3119 49.9883 25.6289 49.3069 25.6187 48.0443C25.6143 47.2277 25.6143 46.4111 25.6143 45.5931ZM38.2262 34.889C38.2242 35.3855 38.3694 35.8714 38.6435 36.2855C38.9176 36.6995 39.3082 37.0231 39.766 37.2153C40.2239 37.4076 40.7285 37.4598 41.2161 37.3656C41.7036 37.2713 42.1523 37.0347 42.5055 36.6857C42.8587 36.3367 43.1005 35.8908 43.2004 35.4045C43.3003 34.9181 43.2538 34.4131 43.0669 33.9531C42.8799 33.4932 42.5608 33.0989 42.1498 32.8202C41.7389 32.5414 41.2545 32.3907 40.7579 32.3869C40.4264 32.3815 40.0971 32.4423 39.7894 32.5658C39.4817 32.6892 39.2018 32.8729 38.966 33.1059C38.7302 33.3389 38.5433 33.6167 38.4163 33.9229C38.2892 34.229 38.2246 34.5575 38.2262 34.889Z" fill="white"/>
<path d="M38.2262 34.889C38.2288 34.5591 38.2965 34.233 38.4252 33.9292C38.554 33.6254 38.7413 33.35 38.9765 33.1186C39.2117 32.8872 39.4903 32.7044 39.7961 32.5806C40.102 32.4568 40.4293 32.3945 40.7593 32.3972C41.0893 32.3998 41.4155 32.4675 41.7193 32.5962C42.0232 32.7249 42.2987 32.9122 42.5301 33.1474C42.7616 33.3825 42.9444 33.661 43.0682 33.9668C43.192 34.2726 43.2544 34.5998 43.2517 34.9297C43.2463 35.596 42.9764 36.2328 42.5014 36.7002C42.0263 37.1675 41.385 37.427 40.7186 37.4216C40.0522 37.4162 39.4152 37.1463 38.9477 36.6714C38.4803 36.1965 38.2208 35.5553 38.2262 34.889Z" fill="white"/>
</g>
<defs>
<clipPath id="clip0_519_130">
<rect width="50" height="50" fill="white" transform="translate(0.0375977)"/>
</clipPath>
</defs>
</svg>
