<svg width="37" height="41" viewBox="0 0 37 41" fill="none" xmlns="http://www.w3.org/2000/svg">
<path d="M18.136 0H18.6974C18.9203 0.182564 19.1553 0.352259 19.3646 0.550104C19.8385 0.99646 20.2636 1.50314 20.7728 1.90285C22.6469 3.37462 24.8234 4.22873 27.084 4.87856C29.8639 5.67098 32.7357 6.09308 35.6255 6.13398C36.4892 6.14926 36.8332 6.51922 36.8332 7.3677C36.8332 11.7999 36.8468 16.2321 36.8284 20.6643C36.8115 24.6509 35.5894 28.2532 33.1988 31.4259C29.5099 36.3238 24.4866 39.2271 18.7126 40.9627C18.5081 41.016 18.2928 41.0121 18.0903 40.9514C13.2875 39.5319 8.99394 37.2165 5.47504 33.5926C1.88316 29.893 -0.0230459 25.4785 0.000210287 20.267C0.0194568 15.9683 0.000210091 11.6696 0.00502172 7.37091C0.00502172 6.53691 0.352261 6.18385 1.17345 6.13077C2.45655 6.05034 3.75248 5.99646 5.03157 5.84285C7.88406 5.50024 10.6499 4.79733 13.2675 3.59096C14.8128 2.87598 16.2435 1.99051 17.3758 0.679589C17.5955 0.42223 17.8826 0.224385 18.136 0ZM22.5154 18.4414C22.5154 17.7175 22.5298 17.05 22.5154 16.3849C22.4585 14.2456 20.9188 12.5245 18.8931 12.3259C16.7503 12.1136 14.8729 13.4309 14.4391 15.526C14.3012 16.1951 14.3517 16.9053 14.3236 17.5969C14.3124 17.8703 14.3236 18.1446 14.3236 18.4422C13.9692 18.4422 13.6773 18.4349 13.3862 18.4422C12.6973 18.4623 12.2955 18.8564 12.2939 19.548C12.2875 22.2288 12.2875 24.9096 12.2939 27.5905C12.2939 28.2926 12.6837 28.6923 13.3789 28.6931C16.7471 28.7001 20.1133 28.7001 23.4777 28.6931C24.1546 28.6931 24.5483 28.2966 24.5499 27.6194C24.5585 24.9247 24.5585 22.2294 24.5499 19.5335C24.5499 18.8451 24.1393 18.4566 23.4457 18.4389C23.1538 18.4357 22.8675 18.4414 22.5178 18.4414H22.5154Z" fill="#5B89FF"/>
<path d="M22.4909 26.6414H14.3521V20.5364H22.4909V26.6414Z" fill="#5B89FF"/>
<path d="M16.3872 18.4172C16.3872 17.6427 16.3447 16.8948 16.3977 16.1541C16.4714 15.1142 17.4249 14.3204 18.4827 14.3477C19.5405 14.3751 20.421 15.2284 20.4547 16.2779C20.4779 16.9816 20.4595 17.687 20.4595 18.4196L16.3872 18.4172Z" fill="#5B89FF"/>
<rect x="10" y="8" width="17" height="25" fill="#5B89FF"/>
<path d="M13.7308 18.7692C12.7754 18.7692 12 19.5446 12 20.5V26.2692C12 27.2246 12.7754 28 13.7308 28H21.8077C22.7631 28 23.5385 27.2246 23.5385 26.2692V20.5C23.5385 19.5446 22.7631 18.7692 21.8077 18.7692H13.7308ZM17.7692 21.6538C18.0752 21.6538 18.3687 21.7754 18.5851 21.9918C18.8015 22.2082 18.9231 22.5017 18.9231 22.8077C18.9231 23.2335 18.69 23.5992 18.3462 23.7994V25.1154C18.3462 25.4333 18.0871 25.6923 17.7692 25.6923C17.4513 25.6923 17.1923 25.4333 17.1923 25.1154V23.7994C16.8485 23.5992 16.6154 23.234 16.6154 22.8077C16.6154 22.5017 16.737 22.2082 16.9533 21.9918C17.1697 21.7754 17.4632 21.6538 17.7692 21.6538Z" fill="white"/>
<path d="M17.577 13C16.302 13 15.199 13.529 14.5118 14.3881C13.8259 15.2477 13.5386 16.9923 13.5386 18.1923H15.2693C15.2693 17.2808 15.4938 15.9342 15.8642 15.4698C16.2351 15.006 16.7353 14.7308 17.577 14.7308C18.4211 14.7308 18.9201 14.9904 19.2899 15.4519C19.6592 15.9135 19.8847 16.6404 19.8847 17.5612V18.1923H21.6155V17.5612C21.6155 16.3542 21.3115 15.2281 20.6238 14.3702C19.9367 13.5123 18.8497 13 17.577 13Z" fill="white"/>
<path d="M14.5118 14.3881C15.199 13.529 16.302 13 17.577 13C18.8497 13 19.9367 13.5123 20.6238 14.3702C21.3115 15.2281 21.6155 16.3542 21.6155 17.5612V18.1923H19.8847V17.5612C19.8847 16.6404 19.6592 15.9135 19.2899 15.4519C18.9201 14.9904 18.4211 14.7308 17.577 14.7308C16.7353 14.7308 16.2351 15.006 15.8642 15.4698C15.4938 15.9342 15.2693 17.2808 15.2693 18.1923H13.5386C13.5386 16.9923 13.8259 15.2477 14.5118 14.3881Z" fill="white"/>
</svg>
