<svg width="20" height="20" viewBox="0 0 20 20" fill="none" xmlns="http://www.w3.org/2000/svg">
<g clip-path="url(#clip0_373_125)">
<path d="M19.9997 5.86621C19.941 6.0609 19.7969 6.16165 19.6234 6.25296C16.4791 7.91438 13.3374 9.57983 10.1983 11.2493C10.1402 11.2867 10.0725 11.3065 10.0034 11.3065C9.93427 11.3065 9.86661 11.2867 9.80843 11.2493C6.65817 9.57318 3.50599 7.90022 0.351879 6.2304C-0.0762728 6.0037 -0.119768 5.46686 0.271701 5.16302C0.340029 5.11311 0.412429 5.06905 0.488135 5.0313C3.50878 3.40207 6.53083 1.77301 9.55427 0.144127C9.65069 0.0916502 9.74974 0.0459959 9.84774 -0.00280762H10.1622C10.2717 0.0496693 10.3828 0.102145 10.4908 0.161444C13.4705 1.76724 16.4506 3.37268 19.4311 4.97777C19.6853 5.11474 19.8986 5.27427 20.0044 5.55082L19.9997 5.86621Z" fill="white"/>
<path d="M19.9996 14.4711C19.889 14.7534 19.6673 14.914 19.4079 15.0536C16.4369 16.6503 13.4665 18.252 10.4969 19.8589C10.1526 20.0457 9.85072 20.0478 9.5059 19.8589C6.50516 18.2321 3.50163 16.6105 0.49531 14.9943C0.0839279 14.7728 -0.0937278 14.449 0.0451465 14.0959C0.111093 13.9284 0.226678 13.7852 0.376349 13.6855C0.808694 13.4231 1.26043 13.1896 1.71164 12.9587C1.77243 12.9282 1.88563 12.9587 1.95585 12.9944C4.36964 14.2703 6.78239 15.5484 9.19408 16.8289C10.0006 17.2565 10.0006 17.256 10.8008 16.8289C13.2115 15.5495 15.6234 14.2694 18.0364 12.9886C18.0864 12.9555 18.145 12.9379 18.2049 12.9379C18.2648 12.9379 18.3234 12.9555 18.3734 12.9886C18.7291 13.1912 19.0894 13.3858 19.4545 13.5727C19.7082 13.7023 19.9052 13.8744 19.998 14.1499L19.9996 14.4711Z" fill="white"/>
<path d="M19.9995 10.169C19.9376 10.3527 19.7977 10.4492 19.6326 10.5363C16.4831 12.2009 13.3356 13.8695 10.1902 15.5421C10.1347 15.5774 10.0702 15.5962 10.0044 15.5962C9.93864 15.5962 9.87421 15.5774 9.81867 15.5421C6.67434 13.8697 3.53316 12.1867 0.369974 10.5489C-0.140455 10.2865 -0.035121 9.59962 0.345866 9.40073C0.680213 9.22651 1.02714 9.06856 1.33581 8.85602C1.66386 8.63037 1.92275 8.66553 2.266 8.8513C4.66879 10.148 7.0873 11.4148 9.49795 12.7021C9.84854 12.8894 10.1556 12.8925 10.5078 12.7021C13.0133 11.3634 15.5256 10.0378 18.0332 8.70279C18.0864 8.66818 18.1485 8.65006 18.2119 8.65071C18.2753 8.65137 18.3371 8.67076 18.3896 8.70646C18.7449 8.9106 19.1044 9.10739 19.4707 9.28948C19.7217 9.41438 19.9083 9.58545 20.0037 9.85046L19.9995 10.169Z" fill="white"/>
</g>
<defs>
<clipPath id="clip0_373_125">
<rect width="20" height="20" fill="white"/>
</clipPath>
</defs>
</svg>
