<svg width="20" height="20" viewBox="0 0 50 51" fill="none" xmlns="http://www.w3.org/2000/svg">
<path d="M36.6761 0C44.3482 0.0765404 50.4074 6.50176 49.9788 14.1502C49.7924 17.351 48.4566 20.3768 46.217 22.6711C43.9774 24.9655 40.9847 26.3739 37.7894 26.6374C33.9999 26.9436 30.6753 25.8025 27.821 23.2975C27.6341 23.1126 27.5233 22.8643 27.5107 22.6017C27.4662 19.0599 26.2012 16.0443 23.6586 13.5755C23.5489 13.4824 23.4624 13.365 23.4061 13.2326C23.3498 13.1002 23.3252 12.9565 23.3344 12.8129C23.4986 6.74529 28.3053 1.23161 34.3033 0.264413C35.0924 0.144732 35.8898 0.0890651 36.6761 0ZM34.9977 10.8548C34.9977 11.9139 34.9977 12.9729 34.9977 14.0319C34.9977 15.1285 35.6936 15.8884 36.6775 15.88C37.6614 15.8717 38.3266 15.1216 38.3293 14.0556C38.3293 11.9394 38.3293 9.82222 38.3293 7.70413C38.3293 6.64092 37.6335 5.895 36.6747 5.88247C35.6866 5.88247 35.0047 6.62979 35.0047 7.73197C35.0061 8.77848 35.0061 9.81943 35.0061 10.8604L34.9977 10.8548ZM36.6677 20.8746C36.999 20.8746 37.3228 20.776 37.5979 20.5915C37.873 20.4069 38.087 20.1447 38.2127 19.8382C38.3384 19.5316 38.37 19.1947 38.3037 18.8701C38.2373 18.5455 38.0759 18.248 37.8399 18.0154C37.604 17.7829 37.3043 17.6257 36.9788 17.564C36.6533 17.5022 36.3168 17.5387 36.0121 17.6687C35.7074 17.7987 35.4482 18.0165 35.2676 18.2942C35.087 18.5719 34.993 18.8971 34.9977 19.2283C35.0014 19.6703 35.1801 20.0927 35.4947 20.4031C35.8093 20.7136 36.2341 20.8866 36.6761 20.8844L36.6677 20.8746Z" fill="white"/>
<path d="M6.18636 31.4355C8.53954 33.7479 11.7067 35.0436 15.0059 35.0436C18.3051 35.0436 21.4723 33.7479 23.8254 31.4355C25.9557 32.5585 27.6794 34.3221 28.7532 36.4775C29.5803 38.0905 30.0098 39.8779 30.0057 41.6906C30.0057 42.9013 30.0934 44.1162 29.7274 45.3088C28.8701 48.0921 26.3401 50.0404 23.4358 50.0404C17.8108 50.058 12.1857 50.058 6.56071 50.0404C2.9828 50.0223 0.0700972 47.0623 0.00747323 43.4858C-0.0301011 41.3399 0.0450459 39.2218 0.918998 37.2067C1.96087 34.7358 3.8206 32.6982 6.18636 31.4355Z" fill="white"/>
<path d="M15.0039 11.7188C17.1472 11.7188 19.2424 12.3545 21.0243 13.5456C22.8063 14.7366 24.1949 16.4295 25.0144 18.4099C25.834 20.3904 26.0478 22.5695 25.6286 24.6714C25.2095 26.7734 24.1762 28.7038 22.6597 30.2184C21.1431 31.733 19.2114 32.7637 17.1089 33.1801C15.0064 33.5966 12.8277 33.3801 10.8483 32.5579C8.86885 31.7358 7.17779 30.345 5.98901 28.5616C4.80024 26.7781 4.16718 24.6821 4.16993 22.5388C4.17472 19.6682 5.31813 16.9167 7.34925 14.8882C9.38037 12.8597 12.1333 11.7199 15.0039 11.7188Z" fill="white"/>
</svg>
