<svg width="20" height="20" viewBox="0 0 50 51" fill="none" xmlns="http://www.w3.org/2000/svg">
<path d="M10.7053 4.54653C10.8182 4.16968 10.8981 3.90571 10.9728 3.64174C11.1795 2.93544 11.1036 2.17643 10.7611 1.52507C10.4185 0.873707 9.83623 0.381007 9.13714 0.151062C7.70961 -0.326518 6.11535 0.354255 5.60999 1.78873C4.60273 4.649 3.62848 7.51968 2.7341 10.4234C2.18879 12.1913 3.46697 13.9123 5.33908 13.9522C8.20282 14.0165 11.07 13.9991 13.9372 13.9522C15.3092 13.9314 16.3338 12.9919 16.5995 11.6946C16.8496 10.465 16.2036 9.32928 14.75 8.55994C14.9549 8.42275 15.1147 8.30465 15.2866 8.21261C26.5367 1.61333 41.3607 8.19178 44.0005 20.9597C46.3015 32.0951 39.0458 42.5497 27.7871 44.3228C17.5165 45.9397 7.46821 38.6423 5.82707 28.3543C5.6534 27.2672 5.6204 26.1557 5.53704 25.0547C5.43805 23.7522 4.71909 22.797 3.55379 22.4323C2.46839 22.0972 1.21626 22.4202 0.601482 23.3823C0.229412 23.9581 0.0216331 24.6247 0.000587463 25.31C0.0110092 36.5479 7.68182 46.4016 18.6262 49.3053C32.4951 52.9835 46.6419 44.17 49.5004 30.0701C52.2791 16.3176 43.1408 2.86545 29.3553 0.500131C22.8775 -0.611327 16.8514 0.647745 11.3045 4.19399C11.136 4.28951 10.9745 4.38502 10.7053 4.54653Z" fill="white"/>
</svg>
