<svg width="37" height="41" viewBox="0 0 37 41" fill="none" xmlns="http://www.w3.org/2000/svg">
<path fill-rule="evenodd" clip-rule="evenodd" d="M26.1348 15.7826C26.4352 15.8514 26.7357 15.9202 27.0325 15.9988L28.9726 16C29.0709 15.963 29.1721 15.9342 29.2752 15.9138C29.772 15.8536 30.2571 15.7555 30.7281 15.6229C30.7429 15.871 30.7503 16.1201 30.75 16.3697V28.6697L36.9 32.7697V34.8197H0V32.7697L6.15 28.6697V16.3697C6.14888 13.8141 6.94383 11.3216 8.42438 9.23856C9.90493 7.1555 11.9976 5.58533 14.4115 4.74624C14.318 4.16057 14.3527 3.5616 14.5132 2.99064C14.6737 2.41969 14.9561 1.89034 15.341 1.43913C15.7259 0.987922 16.2041 0.625587 16.7426 0.377128C17.2812 0.128668 17.8672 0 18.4603 0C18.9249 0 19.3852 0.0789699 19.8217 0.232641C18.8539 1.6072 18.2439 3.211 18.0593 4.89787C17.8225 7.0625 18.2991 9.24527 19.4166 11.1137C20.5342 12.9822 22.2314 14.4339 24.2497 15.2478C24.8528 15.4892 25.4936 15.6359 26.1348 15.7826ZM21.3491 39.7689C22.118 39 22.55 37.9571 22.55 36.8697H14.35C14.35 37.9571 14.782 39 15.5509 39.7689C16.3198 40.5378 17.3626 40.9697 18.45 40.9697C19.5374 40.9697 20.5802 40.5378 21.3491 39.7689Z" fill="#5B89FF"/>
</svg>
