<svg width="46" height="36" viewBox="0 0 46 36" fill="none" xmlns="http://www.w3.org/2000/svg">
<path fill-rule="evenodd" clip-rule="evenodd" d="M4.2 0H37.8C40.11 0 42 1.85625 42 4.125V17.1994C40.4999 16.4326 38.8004 16 37 16C30.9249 16 26 20.9249 26 27C26 29.2136 26.6538 31.2744 27.7789 33H4.2C1.89 33 0 31.1437 0 28.875L0.021 4.125C0.021 1.85625 1.89 0 4.2 0ZM21 18.5625L37.8 8.25V4.125L21 14.4375L4.2 4.125V8.25L21 18.5625Z" fill="#5B89FF"/>
<path d="M36.1292 35.9989C35.2922 35.7773 34.4219 35.6421 33.6247 35.323C31.8082 34.5905 30.2808 33.284 29.275 31.6024C28.2692 29.9207 27.8402 27.9563 28.0534 26.0081C28.2665 24.0599 29.1102 22.2349 30.4557 20.8109C31.8013 19.3869 33.5751 18.4421 35.507 18.1203C40.9711 17.2339 45.9148 21.3546 45.9989 26.8735C46.0698 31.4162 42.6319 35.3784 38.1477 35.9224C38.0549 35.9408 37.9638 35.9667 37.8753 36L36.1292 35.9989ZM40.4252 22.8681L35.7306 27.7288L33.4686 25.1804L31.6063 26.8302L35.6498 31.4063L42.0882 24.7339L40.4252 22.8681Z" fill="#00C696"/>
</svg>
