<svg width="25" height="25" viewBox="0 0 384 384" fill="none" xmlns="http://www.w3.org/2000/svg">
<path d="M0 207.67V176.93C0.84 176.5 0.69 175.68 0.75 174.93C1.3757 168.102 2.34691 161.31 3.65997 154.58C18.52 76.06 84.04 13.58 163.48 2.04996C167.97 1.39996 172.6 1.60996 176.94 -0.0400391H206.94C207.34 0.849961 208.17 0.649961 208.88 0.709961C235.33 3.03996 260.43 10.17 283.52 23.28C338.52 54.48 371.46 101.28 381.81 163.82C382.53 168.17 382.22 172.69 383.88 176.9V206.9C382.21 212.12 382.33 217.62 381.42 222.96C375.3 258.89 360.52 290.79 336.42 318.11C305.46 353.19 266.793 374.393 220.42 381.72C215.69 382.46 210.81 382.25 206.19 383.83H176.93C173.42 382.45 169.67 382.67 166.04 382.15C124.23 376.06 87.93 358.6 57.75 328.96C27.19 298.96 8.63335 262.753 2.08002 220.34C1.44002 216.14 1.74 211.73 0 207.67ZM116.16 157.08C113.92 157.08 111.92 156.91 109.96 157.08C99.73 158.08 91.72 165.38 90.04 175.01C89.0785 180.15 89.8222 185.464 92.158 190.143C94.4937 194.821 98.2937 198.609 102.98 200.93C105.332 202.095 107.761 203.098 110.25 203.93C112.34 204.61 112.94 205.38 111.94 207.64C107.81 216.97 101.5 223.99 91.79 227.64C88.63 228.82 85.44 229.86 82.26 230.99C74.44 233.75 69.14 238.88 68.35 247.38C67.54 256.22 71.74 262.68 79.2 267.23C84.2 270.23 89.76 271.71 95.37 272.83C97.85 273.32 98.82 274.42 99.5 276.72C102.24 286.04 108.5 291.31 118.18 292.72C124.18 293.6 130.18 292.44 136.12 292.28C141.123 292.036 146.089 293.255 150.41 295.79C155.67 298.897 161.003 301.87 166.41 304.71C183.63 313.71 200.86 313.5 217.98 304.4C222.5 302.01 227.04 299.62 231.34 296.87C236.765 293.218 243.31 291.609 249.81 292.33C253.796 292.748 257.802 292.944 261.81 292.92C273.39 292.92 281.29 287.06 284.53 276.04C284.684 275.212 285.104 274.457 285.727 273.89C286.35 273.323 287.141 272.975 287.98 272.9C295.06 271.38 302.07 269.61 307.9 264.9C319.9 255.15 317.58 237.72 303.39 231.71C300.64 230.55 297.8 229.59 294.95 228.71C284.46 225.41 277.03 218.71 272.34 208.81C271.12 206.22 270.82 204.63 274.24 203.81C276.636 203.124 278.947 202.172 281.13 200.97C285.952 198.501 289.794 194.469 292.028 189.534C294.262 184.599 294.756 179.052 293.43 173.8C290.61 163.06 281.43 156.48 269.88 157.17C267.5 157.31 267.52 156.32 267.54 154.69C267.668 148.332 267.247 141.975 266.28 135.69C260.33 100.34 228.54 73.16 192.75 72.9C156.19 72.63 124.22 98.97 117.62 134.64C116.2 142 116.27 149.6 116.16 157.08Z" fill="#FEC81B"/>
</svg>
