<svg width="20" height="20" viewBox="0 0 50 51" fill="none" xmlns="http://www.w3.org/2000/svg">
<path d="M24.9902 1.33245e-05C37.1865 1.33245e-05 47.7177 8.9177 49.6679 20.9039C50.7254 27.3304 49.2353 33.916 45.5142 39.2613C41.7931 44.6065 36.1344 48.2901 29.7404 49.5293C24.6619 50.5322 19.7322 49.9382 14.9764 47.8837C14.6667 47.7596 14.3252 47.7386 14.0027 47.8239C11.8091 48.4707 9.62799 49.1579 7.44273 49.8311C5.95158 50.2888 4.91251 49.4806 5.01961 47.9255C5.15871 45.8139 5.31728 43.7024 5.50368 41.595C5.53781 41.3087 5.51455 41.0184 5.43526 40.7411C5.35597 40.4638 5.22223 40.2051 5.04187 39.9801C1.32094 34.9641 -0.494305 29.3209 0.116343 23.0975C1.14429 12.6344 6.72219 5.46385 16.4383 1.53706C19.1605 0.42983 22.0468 -0.00276867 24.9902 1.33245e-05ZM25.0222 9.50192C24.8747 10.5911 24.7134 11.651 24.591 12.7151C24.3879 14.4831 23.8955 16.1286 22.8007 17.5767C21.9244 18.7395 21.0996 19.9414 20.2761 21.1418C20.1146 21.3782 20.0234 21.6555 20.0132 21.9416C19.9951 25.6194 20.0007 29.2972 20.0007 32.975V33.6246C21.3124 33.9126 22.6018 34.4091 23.9038 34.4439C27.9252 34.5524 31.9535 34.4898 35.9791 34.4843C36.39 34.4933 36.7935 34.3735 37.1328 34.1414C37.4721 33.9094 37.7302 33.5769 37.8708 33.1906C38.1657 32.3936 37.9487 31.5729 37.2894 30.965C37.1712 30.8579 37.0668 30.7369 37.0307 30.7007C37.5732 30.3544 38.124 30.0984 38.551 29.7062C38.7691 29.4996 38.9211 29.233 38.9877 28.9401C39.0543 28.6472 39.0325 28.3412 38.9252 28.0606C38.7332 27.5237 38.3452 27.0563 38.0252 26.5305C39.0977 26.3775 39.853 25.8253 39.9726 24.7111C40.0922 23.5969 39.4705 22.9028 38.4105 22.4966C38.6261 22.3993 38.768 22.345 38.9029 22.2755C39.2923 22.0771 39.6059 21.7564 39.7956 21.3627C39.9853 20.969 40.0406 20.5239 39.9531 20.0958C39.865 19.6397 39.6177 19.2298 39.2554 18.9392C38.8932 18.6485 38.4394 18.4959 37.9752 18.5086C34.869 18.4961 31.763 18.5086 28.6555 18.5086H28.0059C28.0351 18.243 28.0392 18.0538 28.0782 17.8702C28.387 16.3957 28.693 14.9213 29.0171 13.4496C29.3204 12.0683 29.0032 11.0376 28.0059 10.3588C27.117 9.74952 26.1072 9.56034 25.0222 9.50192ZM9.99939 27.9772C9.99939 30.0766 9.99939 32.1757 9.99939 34.2742C9.99939 35.1088 10.368 35.4941 11.197 35.4969C13.0517 35.5034 14.9064 35.5034 16.761 35.4969C17.6248 35.4969 17.9962 35.1213 17.9976 34.2533C17.9976 30.0739 17.9976 25.893 17.9976 21.7107C17.9976 20.8664 17.6318 20.5061 16.7916 20.5047C14.937 20.5047 13.0823 20.5047 11.2276 20.5047C10.343 20.5047 9.99939 20.8511 9.99939 21.733C9.99939 23.8185 10.0003 25.8999 10.0022 27.9772H9.99939Z" fill="white"/>
</svg>
