<svg width="172" height="18" viewBox="0 0 172 18" fill="none" xmlns="http://www.w3.org/2000/svg">
<path d="M0.899318 17.4V0.915145H7.40311C8.64806 0.915145 9.71056 1.13784 10.5906 1.58323C11.476 2.02326 12.1495 2.64842 12.611 3.45871C13.0778 4.26363 13.3113 5.21076 13.3113 6.30009C13.3113 7.39479 13.0751 8.33655 12.6029 9.12537C12.1307 9.90883 11.4465 10.5098 10.5504 10.9284C9.65958 11.347 8.58098 11.5562 7.31456 11.5562H2.95992V8.75511H6.75112C7.41652 8.75511 7.96924 8.66388 8.40926 8.48143C8.84929 8.29898 9.17662 8.02531 9.39127 7.66041C9.61128 7.29551 9.72129 6.84207 9.72129 6.30009C9.72129 5.75274 9.61128 5.29125 9.39127 4.91562C9.17662 4.53999 8.8466 4.25558 8.40121 4.0624C7.96119 3.86385 7.40579 3.76458 6.73502 3.76458H4.38464V17.4H0.899318ZM9.80178 9.8981L13.8988 17.4H10.0513L6.04278 9.8981H9.80178ZM21.1452 17.6415C19.8734 17.6415 18.7787 17.3839 17.8611 16.8687C16.9488 16.3482 16.2459 15.6131 15.7522 14.6633C15.2585 13.7081 15.0117 12.5785 15.0117 11.2745C15.0117 10.0027 15.2585 8.88658 15.7522 7.92604C16.2459 6.96549 16.9408 6.21691 17.8369 5.6803C18.7385 5.14368 19.7956 4.87537 21.0083 4.87537C21.824 4.87537 22.5833 5.00684 23.2863 5.26979C23.9946 5.52736 24.6117 5.91641 25.1376 6.43693C25.6688 6.95744 26.082 7.61212 26.3772 8.40094C26.6723 9.1844 26.8199 10.102 26.8199 11.1538V12.0955H16.38V9.97054H23.5921C23.5921 9.47686 23.4848 9.03951 23.2702 8.65852C23.0555 8.27752 22.7577 7.9797 22.3767 7.76505C22.0011 7.54504 21.5637 7.43503 21.0647 7.43503C20.5442 7.43503 20.0827 7.55577 19.6802 7.79725C19.2831 8.03336 18.9719 8.35265 18.7465 8.75511C18.5211 9.1522 18.4057 9.59491 18.4004 10.0832V12.1036C18.4004 12.7153 18.5131 13.2439 18.7385 13.6893C18.9692 14.1347 19.2938 14.4781 19.7124 14.7196C20.131 14.9611 20.6273 15.0818 21.2015 15.0818C21.5825 15.0818 21.9313 15.0282 22.2479 14.9208C22.5645 14.8135 22.8355 14.6525 23.0609 14.4379C23.2863 14.2232 23.458 13.9603 23.576 13.649L26.7474 13.8583C26.5865 14.6203 26.2564 15.2857 25.7574 15.8545C25.2637 16.418 24.6251 16.858 23.8417 17.1746C23.0636 17.4859 22.1647 17.6415 21.1452 17.6415ZM34.6438 17.6415C33.3773 17.6415 32.288 17.3732 31.3758 16.8365C30.4689 16.2946 29.7713 15.5433 29.283 14.5828C28.8 13.6222 28.5585 12.5168 28.5585 11.2665C28.5585 10.0001 28.8027 8.88926 29.291 7.93408C29.7847 6.97354 30.485 6.22496 31.3919 5.68835C32.2987 5.14636 33.3773 4.87537 34.6277 4.87537C35.7063 4.87537 36.6507 5.07124 37.461 5.46297C38.2713 5.8547 38.9125 6.40473 39.3848 7.11306C39.857 7.8214 40.1172 8.65315 40.1655 9.60833H36.9297C36.8385 8.99122 36.597 8.49485 36.2053 8.11922C35.8189 7.73822 35.3118 7.54772 34.684 7.54772C34.1528 7.54772 33.6886 7.69261 33.2915 7.98238C32.8998 8.26679 32.5939 8.68266 32.3739 9.23001C32.1539 9.77736 32.0438 10.4401 32.0438 11.2182C32.0438 12.007 32.1512 12.6778 32.3658 13.2305C32.5858 13.7832 32.8944 14.2044 33.2915 14.4942C33.6886 14.784 34.1528 14.9289 34.684 14.9289C35.0757 14.9289 35.4272 14.8484 35.7385 14.6874C36.0551 14.5264 36.3153 14.293 36.5192 13.9871C36.7285 13.6759 36.8653 13.3029 36.9297 12.8683H40.1655C40.1119 13.8127 39.8543 14.6445 39.3928 15.3635C38.9367 16.0772 38.3062 16.6353 37.5012 17.0378C36.6963 17.4402 35.7438 17.6415 34.6438 17.6415ZM47.9471 17.6415C46.6968 17.6415 45.6155 17.3758 44.7033 16.8446C43.7964 16.308 43.0961 15.5621 42.6024 14.6069C42.1088 13.6464 41.8619 12.5329 41.8619 11.2665C41.8619 9.98932 42.1088 8.87316 42.6024 7.91799C43.0961 6.95744 43.7964 6.21155 44.7033 5.6803C45.6155 5.14368 46.6968 4.87537 47.9471 4.87537C49.1975 4.87537 50.2761 5.14368 51.1829 5.6803C52.0952 6.21155 52.7981 6.95744 53.2918 7.91799C53.7855 8.87316 54.0324 9.98932 54.0324 11.2665C54.0324 12.5329 53.7855 13.6464 53.2918 14.6069C52.7981 15.5621 52.0952 16.308 51.1829 16.8446C50.2761 17.3758 49.1975 17.6415 47.9471 17.6415ZM47.9632 14.9852C48.532 14.9852 49.007 14.8242 49.388 14.5023C49.7689 14.1749 50.056 13.7295 50.2492 13.1661C50.4478 12.6026 50.547 11.9614 50.547 11.2423C50.547 10.5233 50.4478 9.882 50.2492 9.31855C50.056 8.75511 49.7689 8.30972 49.388 7.98238C49.007 7.65504 48.532 7.49138 47.9632 7.49138C47.3891 7.49138 46.9061 7.65504 46.5144 7.98238C46.128 8.30972 45.8356 8.75511 45.637 9.31855C45.4438 9.882 45.3472 10.5233 45.3472 11.2423C45.3472 11.9614 45.4438 12.6026 45.637 13.1661C45.8356 13.7295 46.128 14.1749 46.5144 14.5023C46.9061 14.8242 47.3891 14.9852 47.9632 14.9852ZM56.262 17.4V5.03636H59.53V7.2177H59.6749C59.9325 6.49327 60.3618 5.92177 60.9628 5.50321C61.5638 5.08465 62.2828 4.87537 63.12 4.87537C63.9678 4.87537 64.6896 5.08734 65.2852 5.51126C65.8809 5.92982 66.2779 6.49864 66.4765 7.2177H66.6053C66.8575 6.50937 67.3136 5.94324 67.9737 5.51931C68.6391 5.09002 69.4252 4.87537 70.3321 4.87537C71.4858 4.87537 72.4222 5.24296 73.1413 5.97812C73.8657 6.70792 74.2279 7.74359 74.2279 9.08513V17.4H70.807V9.76126C70.807 9.07439 70.6245 8.55924 70.2596 8.21581C69.8947 7.87237 69.4386 7.70066 68.8913 7.70066C68.2688 7.70066 67.7832 7.8992 67.4344 8.2963C67.0856 8.68803 66.9112 9.20586 66.9112 9.8498V17.4H63.5868V9.68882C63.5868 9.08244 63.4124 8.59949 63.0636 8.23996C62.7202 7.88042 62.2667 7.70066 61.7033 7.70066C61.3223 7.70066 60.9789 7.79725 60.673 7.99043C60.3725 8.17825 60.1337 8.44387 59.9566 8.7873C59.7795 9.12537 59.691 9.52247 59.691 9.97859V17.4H56.262ZM76.9365 17.4V5.03636H80.2045V7.2177H80.3494C80.6069 6.49327 81.0362 5.92177 81.6372 5.50321C82.2383 5.08465 82.9573 4.87537 83.7944 4.87537C84.6423 4.87537 85.364 5.08734 85.9597 5.51126C86.5553 5.92982 86.9524 6.49864 87.151 7.2177H87.2798C87.532 6.50937 87.9881 5.94324 88.6481 5.51931C89.3135 5.09002 90.0997 4.87537 91.0066 4.87537C92.1603 4.87537 93.0967 5.24296 93.8157 5.97812C94.5402 6.70792 94.9024 7.74359 94.9024 9.08513V17.4H91.4815V9.76126C91.4815 9.07439 91.299 8.55924 90.9341 8.21581C90.5692 7.87237 90.1131 7.70066 89.5657 7.70066C88.9433 7.70066 88.4576 7.8992 88.1088 8.2963C87.76 8.68803 87.5856 9.20586 87.5856 9.8498V17.4H84.2613V9.68882C84.2613 9.08244 84.0869 8.59949 83.7381 8.23996C83.3947 7.88042 82.9412 7.70066 82.3778 7.70066C81.9968 7.70066 81.6533 7.79725 81.3475 7.99043C81.047 8.17825 80.8082 8.44387 80.6311 8.7873C80.454 9.12537 80.3655 9.52247 80.3655 9.97859V17.4H76.9365ZM103.245 17.6415C101.974 17.6415 100.879 17.3839 99.9613 16.8687C99.0491 16.3482 98.3461 15.6131 97.8524 14.6633C97.3588 13.7081 97.1119 12.5785 97.1119 11.2745C97.1119 10.0027 97.3588 8.88658 97.8524 7.92604C98.3461 6.96549 99.041 6.21691 99.9372 5.6803C100.839 5.14368 101.896 4.87537 103.109 4.87537C103.924 4.87537 104.684 5.00684 105.387 5.26979C106.095 5.52736 106.712 5.91641 107.238 6.43693C107.769 6.95744 108.182 7.61212 108.477 8.40094C108.773 9.1844 108.92 10.102 108.92 11.1538V12.0955H98.4803V9.97054H105.692C105.692 9.47686 105.585 9.03951 105.37 8.65852C105.156 8.27752 104.858 7.9797 104.477 7.76505C104.101 7.54504 103.664 7.43503 103.165 7.43503C102.644 7.43503 102.183 7.55577 101.78 7.79725C101.383 8.03336 101.072 8.35265 100.847 8.75511C100.621 9.1522 100.506 9.59491 100.501 10.0832V12.1036C100.501 12.7153 100.613 13.2439 100.839 13.6893C101.069 14.1347 101.394 14.4781 101.813 14.7196C102.231 14.9611 102.728 15.0818 103.302 15.0818C103.683 15.0818 104.032 15.0282 104.348 14.9208C104.665 14.8135 104.936 14.6525 105.161 14.4379C105.387 14.2232 105.558 13.9603 105.676 13.649L108.848 13.8583C108.687 14.6203 108.357 15.2857 107.858 15.8545C107.364 16.418 106.725 16.858 105.942 17.1746C105.164 17.4859 104.265 17.6415 103.245 17.6415ZM114.587 10.2523V17.4H111.158V5.03636H114.426V7.2177H114.571C114.844 6.49864 115.303 5.92982 115.947 5.51126C116.591 5.08734 117.372 4.87537 118.289 4.87537C119.148 4.87537 119.897 5.06319 120.535 5.43882C121.174 5.81445 121.67 6.35107 122.024 7.04867C122.378 7.7409 122.556 8.56729 122.556 9.52783V17.4H119.127V10.1396C119.132 9.38295 118.939 8.79267 118.547 8.36874C118.155 7.93945 117.616 7.7248 116.929 7.7248C116.468 7.7248 116.06 7.82408 115.706 8.02263C115.357 8.22117 115.083 8.51095 114.885 8.89194C114.691 9.26758 114.592 9.72102 114.587 10.2523ZM129.814 17.6012C128.875 17.6012 128.024 17.3597 127.262 16.8768C126.506 16.3885 125.905 15.6721 125.459 14.7276C125.019 13.7778 124.799 12.6134 124.799 11.2343C124.799 9.81761 125.027 8.63974 125.483 7.70066C125.94 6.75621 126.546 6.05056 127.303 5.58371C128.065 5.11148 128.899 4.87537 129.806 4.87537C130.498 4.87537 131.075 4.99343 131.537 5.22954C132.003 5.46028 132.379 5.75006 132.663 6.09886C132.953 6.44229 133.173 6.78036 133.323 7.11306H133.428V0.915145H136.849V17.4H133.468V15.4199H133.323C133.162 15.7633 132.934 16.1041 132.639 16.4421C132.349 16.7748 131.971 17.0512 131.504 17.2712C131.043 17.4912 130.479 17.6012 129.814 17.6012ZM130.901 14.8725C131.453 14.8725 131.92 14.7223 132.301 14.4218C132.688 14.1159 132.983 13.6893 133.187 13.1419C133.396 12.5946 133.501 11.9533 133.501 11.2182C133.501 10.483 133.399 9.84444 133.195 9.30246C132.991 8.76047 132.696 8.34191 132.309 8.04677C131.923 7.75164 131.453 7.60407 130.901 7.60407C130.337 7.60407 129.862 7.757 129.476 8.06287C129.09 8.36874 128.797 8.79267 128.599 9.33465C128.4 9.87664 128.301 10.5045 128.301 11.2182C128.301 11.9372 128.4 12.5731 128.599 13.1258C128.802 13.6732 129.095 14.1025 129.476 14.4137C129.862 14.7196 130.337 14.8725 130.901 14.8725Z" fill="white"/>
<path d="M139.733 0.915145H144.031L148.571 11.9909H148.764L153.304 0.915145H157.602V17.4H154.221V6.67035H154.084L149.818 17.3195H147.516L143.25 6.63011H143.113V17.4H139.733V0.915145ZM160.474 17.4V0.915145H171.581V3.78872H163.959V7.71676H171.01V10.5903H163.959V14.5264H171.614V17.4H160.474Z" fill="#61E9D3"/>
</svg>
