<svg width="16" height="13" viewBox="0 0 16 13" fill="none" xmlns="http://www.w3.org/2000/svg">
<path d="M5.56731 8.91817C5.72048 8.70654 5.79706 8.58693 5.88215 8.49492C8.3072 5.86341 10.7408 3.2411 13.1658 0.618792C13.6253 0.112732 14.1614 -0.126496 14.808 0.0667266C15.9397 0.388764 16.3737 1.84253 15.6334 2.81785C15.5568 2.91906 15.4717 3.00187 15.3952 3.09388C12.5532 6.16704 9.71117 9.2402 6.86918 12.3134C6.01829 13.2335 5.13336 13.2243 4.28246 12.3134C3.02314 10.9516 1.7468 9.58985 0.495979 8.20968C-0.40597 7.21597 -0.0230672 5.62418 1.20222 5.28374C1.80636 5.11812 2.33391 5.31134 2.77638 5.7898C3.61876 6.70071 4.46115 7.61161 5.30354 8.52252C5.38863 8.60533 5.44819 8.72494 5.56731 8.91817Z" fill="#61E9D3"/>
</svg>
