<svg width="25" height="25" viewBox="0 0 50 50" fill="none" xmlns="http://www.w3.org/2000/svg">
<mask id="mask0_225_183" style="mask-type:alpha" maskUnits="userSpaceOnUse" x="0" y="0" width="50" height="50">
<rect width="50" height="50" fill="#D9D9D9"/>
</mask>
<g mask="url(#mask0_225_183)">
<path d="M3 26.842V24.1547C3.03359 23.8792 3.07166 23.6038 3.10189 23.3283C3.59904 18.7745 5.32114 14.748 8.3645 11.315C11.7046 7.53938 15.8665 5.19248 20.8425 4.32471C21.6106 4.19035 22.3877 4.10637 23.1603 4H25.8476C25.9537 4.03047 26.0618 4.05329 26.1712 4.0683C29.518 4.31911 32.652 5.27982 35.5072 7.03776C41.0565 10.454 44.475 15.3684 45.6719 21.7932C45.8175 22.577 45.8959 23.3675 46.0078 24.1547V26.842C45.9731 27.1174 45.9351 27.3929 45.9048 27.6694C45.4446 31.9243 43.9039 35.7313 41.1897 39.0423C37.815 43.1561 33.4974 45.7101 28.2538 46.6641C27.4599 46.8085 26.6537 46.888 25.8532 47H23.1547C22.6295 46.9351 22.1044 46.8802 21.5804 46.8052C17.302 46.1938 13.5185 44.4874 10.2837 41.6142C6.55058 38.2954 4.21936 34.1715 3.33367 29.2482C3.19147 28.4487 3.11197 27.6426 3 26.842ZM22.5456 22.661C22.2152 22.6308 21.9241 22.586 21.633 22.5837C21.2568 22.5837 20.8783 22.6028 20.5032 22.6375C16.3502 23.0204 13.1848 27.0256 13.7716 31.1472C13.9276 32.2732 14.3314 33.3506 14.9539 34.3018C15.5764 35.2529 16.402 36.0543 17.3713 36.6481C18.3407 37.2419 19.4296 37.6133 20.5597 37.7357C21.6899 37.8581 22.8331 37.7285 23.9071 37.356C27.0557 36.2766 29.0891 33.4303 29.0925 30.0667C29.0925 27.3111 29.0746 24.5544 29.0645 21.7977V21.2546C30.968 22.633 32.9756 23.353 35.2464 23.3474V19.3803C33.559 19.3153 32.1112 18.751 30.9153 17.5787C29.7195 16.4063 29.1238 14.9361 29.0522 13.2544H25.0582V13.8142C25.0582 19.1455 25.0548 24.4764 25.0481 29.8069C25.0574 30.1707 25.0312 30.5344 24.9697 30.8931C24.598 32.7585 22.7617 34.0562 20.9388 33.7662C18.9401 33.4482 17.5662 31.7048 17.7969 29.7767C17.9018 28.8413 18.3665 27.9833 19.0927 27.3844C19.8189 26.7855 20.7496 26.4926 21.6879 26.5676C21.9723 26.5889 22.2533 26.6415 22.5467 26.6796L22.5456 22.661Z" fill="black"/>
<path d="M22.5455 22.6611V26.6842C22.2521 26.645 21.9711 26.5923 21.6867 26.5722C20.7484 26.4971 19.8177 26.79 19.0915 27.389C18.3653 27.9879 17.9006 28.8458 17.7957 29.7813C17.565 31.7094 18.9389 33.4528 20.9376 33.7708C22.7638 34.0608 24.6001 32.763 24.9685 30.8976C25.03 30.539 25.0563 30.1752 25.0469 29.8115C25.0536 24.4802 25.057 19.1493 25.057 13.8188V13.2589H29.0487C29.1215 14.9385 29.7094 16.3941 30.9119 17.5832C32.1145 18.7723 33.5555 19.3199 35.2429 19.3848V23.3508C32.9722 23.3564 30.9623 22.6364 29.061 21.2581V21.8011C29.0711 24.5578 29.0913 27.3146 29.089 30.0701C29.089 33.4293 27.0523 36.28 23.9037 37.3594C22.8297 37.7319 21.6865 37.8616 20.5563 37.7392C19.4262 37.6168 18.3372 37.2453 17.3679 36.6515C16.3986 36.0577 15.5729 35.2564 14.9505 34.3052C14.328 33.354 13.9242 32.2766 13.7681 31.1507C13.1814 27.0301 16.3434 23.025 20.4998 22.6409C20.8749 22.6062 21.2534 22.586 21.6296 22.5872C21.9229 22.5872 22.2152 22.6308 22.5455 22.6611Z" fill="white"/>
</g>
</svg>
