<svg width="20" height="20" viewBox="0 0 20 20" fill="none" xmlns="http://www.w3.org/2000/svg">
<path d="M8.33325 9.16667V14.1667M11.6666 9.16667V14.1667M3.33325 5.83333H16.6666M15.8333 5.83333L15.1108 15.9517C15.0808 16.3722 14.8927 16.7657 14.5842 17.053C14.2757 17.3403 13.8698 17.5 13.4483 17.5H6.55159C6.13004 17.5 5.72414 17.3403 5.41566 17.053C5.10717 16.7657 4.91902 16.3722 4.88909 15.9517L4.16659 5.83333H15.8333ZM12.4999 5.83333V3.33333C12.4999 3.11232 12.4121 2.90036 12.2558 2.74408C12.0996 2.5878 11.8876 2.5 11.6666 2.5H8.33325C8.11224 2.5 7.90028 2.5878 7.744 2.74408C7.58772 2.90036 7.49992 3.11232 7.49992 3.33333V5.83333H12.4999Z" stroke="#F32D2D" stroke-width="1.4" stroke-linecap="round" stroke-linejoin="round"/>
</svg>
