<svg width="16" height="18" viewBox="0 0 16 18" fill="none" xmlns="http://www.w3.org/2000/svg">
<path d="M6.33325 8.16667V13.1667M9.66659 8.16667V13.1667M1.33325 4.83333H14.6666M13.8333 4.83333L13.1108 14.9517C13.0808 15.3722 12.8927 15.7657 12.5842 16.053C12.2757 16.3403 11.8698 16.5 11.4483 16.5H4.55159C4.13004 16.5 3.72414 16.3403 3.41566 16.053C3.10717 15.7657 2.91902 15.3722 2.88909 14.9517L2.16659 4.83333H13.8333ZM10.4999 4.83333V2.33333C10.4999 2.11232 10.4121 1.90036 10.2558 1.74408C10.0996 1.5878 9.8876 1.5 9.66659 1.5H6.33325C6.11224 1.5 5.90028 1.5878 5.744 1.74408C5.58772 1.90036 5.49992 2.11232 5.49992 2.33333V4.83333H10.4999Z" stroke="#FFFFFF" stroke-width="1.4" stroke-linecap="round" stroke-linejoin="round"/>
</svg>
