<svg width="99" height="66" viewBox="0 0 99 66" fill="none" xmlns="http://www.w3.org/2000/svg">
<path d="M79.8187 24.915C78.4332 17.8931 74.6526 11.57 69.1229 7.02589C63.5932 2.48174 56.6573 -0.001618 49.5 7.90914e-07C37.5788 7.90914e-07 27.225 6.765 22.0688 16.665C16.006 17.3202 10.3992 20.1927 6.32564 24.7307C2.25213 29.2687 -0.00070827 35.1519 1.67033e-07 41.25C1.67033e-07 54.9038 11.0963 66 24.75 66H78.375C89.76 66 99 56.76 99 45.375C99 34.485 90.5438 25.6575 79.8187 24.915Z" fill="#006BD7"/>
<path d="M39 39.5882V42.2941C39 43.0118 39.2897 43.7 39.8055 44.2075C40.3212 44.7149 41.0207 45 41.75 45H58.25C58.9793 45 59.6788 44.7149 60.1945 44.2075C60.7103 43.7 61 43.0118 61 42.2941V39.5882M43.125 28.7647L50 22M50 22L56.875 28.7647M50 22V38.2353" stroke="white" stroke-width="2" stroke-linecap="round" stroke-linejoin="round"/>
</svg>
