<svg width="25" height="25" viewBox="0 0 50 50" fill="none" xmlns="http://www.w3.org/2000/svg">
<path d="M1.06702 24.7008C1.06584 28.9017 2.17209 33.0037 4.27561 36.6192L0.865845 48.9723L13.6065 45.6576C17.1304 47.5611 21.0786 48.5585 25.0908 48.5587H25.1014C38.3465 48.5587 49.1283 37.8643 49.134 24.7196C49.1365 18.35 46.6389 12.3605 42.101 7.85427C37.5639 3.34845 31.5297 0.8657 25.1004 0.862793C11.8537 0.862793 1.07268 11.5566 1.06721 24.7008" fill="url(#paint0_linear_225_295)"/>
<path d="M18.8824 14.3698C18.4164 13.3421 17.926 13.3213 17.4828 13.3033C17.1199 13.2878 16.7051 13.289 16.2906 13.289C15.8758 13.289 15.2018 13.4438 14.6321 14.0611C14.0617 14.6789 12.4547 16.1719 12.4547 19.2085C12.4547 22.2454 14.6838 25.18 14.9946 25.5923C15.3057 26.0037 19.2979 32.4347 25.6205 34.9087C30.8752 36.9647 31.9446 36.5558 33.085 36.4527C34.2256 36.35 36.7655 34.9601 37.2836 33.5188C37.8022 32.0777 37.8022 30.8424 37.6467 30.5843C37.4912 30.3271 37.0764 30.1727 36.4543 29.8642C35.8321 29.5554 32.7739 28.0622 32.2037 27.8562C31.6334 27.6504 31.2188 27.5477 30.8039 28.1657C30.3891 28.7828 29.1979 30.1727 28.8348 30.5843C28.4721 30.9969 28.109 31.0483 27.4871 30.7395C26.8647 30.4298 24.8614 29.7789 22.4846 27.6764C20.6354 26.0403 19.3869 24.02 19.024 23.4019C18.6612 22.7849 18.9852 22.4504 19.2971 22.1428C19.5766 21.8663 19.9194 21.4221 20.2307 21.0618C20.5408 20.7014 20.6444 20.4442 20.8518 20.0326C21.0594 19.6205 20.9555 19.2601 20.8002 18.9514C20.6444 18.6426 19.4356 15.5901 18.8824 14.3698Z" fill="white"/>
<defs>
<linearGradient id="paint0_linear_225_295" x1="2414.27" y1="4811.81" x2="2414.27" y2="0.862793" gradientUnits="userSpaceOnUse">
<stop stop-color="#1FAF38"/>
<stop offset="1" stop-color="#60D669"/>
</linearGradient>
</defs>
</svg>
