<svg width="176" height="116" viewBox="0 0 176 116" fill="none" xmlns="http://www.w3.org/2000/svg">
<path d="M174.985 25.7037C173.683 23.3621 168.475 22.0612 166.304 21.4542L158.665 18.8524L152.762 16.0771L148.768 13.3886C148.018 14.4642 147.351 15.5949 146.772 16.771C145.903 19.0258 145.383 20.5002 145.035 21.5409C144.314 23.9947 143.905 26.5299 143.82 29.086L145.99 31.1675C145.99 31.1675 146.685 31.8613 146.598 31.948L145.296 33.3356L144.601 34.3763C143.996 35.2516 143.473 36.1806 143.039 37.1515C142.17 39.1462 141.476 41.1409 140.521 43.0489C138.463 46.4415 135.747 49.3899 132.534 51.7215C129.286 54.497 125.625 56.75 121.683 58.3994C118.934 59.5209 115.964 59.9957 113.002 59.787C111.251 59.731 109.542 59.2422 108.027 58.3644C106.512 57.4865 105.238 56.247 104.32 54.7569C101.162 49.3373 99.909 43.0178 100.761 36.8046V33.856C100.765 33.1295 100.586 32.4138 100.24 31.7745C100.24 31.1675 99.3721 30.3869 98.5908 30.3002L99.0249 30.9073C97.699 31.8116 96.5017 32.891 95.4656 34.1161C94.5309 35.1489 93.7155 36.2835 93.0348 37.4984C92.4336 38.4815 91.8831 39.4946 91.3854 40.5339L86.1767 52.4153C81.6624 62.8224 78.5372 68.9799 77.4955 71.1481C74.8715 75.5264 71.6584 79.5242 67.9461 83.0295V82.3357C66.2967 78.1729 64.5605 73.6631 63.0846 69.1534L71.7659 56.925L83.0514 39.5799C86.26 34.6899 90.1808 30.3054 94.6843 26.571C98.2033 24.0717 101.887 21.8117 105.709 19.8064C106.482 19.1903 107.156 18.459 107.706 17.6382C109.182 15.9037 108.487 12.2612 108.227 10.1798C108.081 8.5786 107.849 6.98636 107.532 5.40986C107.532 4.62933 107.532 3.76207 106.925 2.98154C106.317 2.201 106.23 1.42047 106.925 0.986839C101.845 4.7496 95.8505 7.08533 89.5623 7.75146C82.791 8.53199 75.9328 7.2311 69.1615 7.75146C65.7826 7.69542 62.4401 8.45451 59.4175 9.9643C56.3949 11.4741 53.7815 13.69 51.7991 16.424C49.3686 22.1067 48.5865 28.3576 49.542 34.463C50.2396 42.4032 51.8714 50.2336 54.4034 57.7923L49.542 63.5162C48.0424 65.118 46.4167 66.5971 44.6805 67.9392C42.2779 70.1766 39.2495 71.6288 35.9993 72.1021H34.0894C32.0562 72.0854 30.037 71.7638 28.0994 71.1481C25.646 70.0785 23.038 69.4052 20.3731 69.1534C17.0931 69.7587 14.0381 71.239 11.5318 73.4376C9.02537 75.6361 7.16091 78.471 6.13591 81.6419C2.80667 89.9291 0.955661 98.7347 0.666746 107.66C0.456503 110.055 0.456503 112.463 0.666746 114.858C0.666746 117.026 2.14255 115.292 2.92386 113.817C4.67817 108.923 6.91747 104.217 9.60839 99.7677C10.8982 96.7272 12.9491 94.0692 15.564 92.0492C18.1789 90.0292 21.27 88.7151 24.5401 88.2331C26.1243 88.1995 27.7046 88.4041 29.2279 88.8402C33.9962 89.481 38.8492 88.8288 43.2785 86.9521C47.7078 85.0753 51.5503 82.043 54.4034 78.1729L59.1781 72.6224L64.8209 84.8508C62.3435 86.9525 59.7338 88.8933 57.0078 90.6614C51.7329 94.3766 45.8607 97.1631 39.6454 98.9004C31.9348 100.478 24.0196 100.801 16.2061 99.8544C15.0776 99.8544 14.6435 99.8544 14.5567 101.242H15.1644C16.6402 101.936 18.8973 102.543 21.7621 103.497C29.031 105.515 36.5291 106.594 44.0728 106.706C49.0496 107.176 54.0694 106.567 58.7889 104.92C63.5085 103.274 67.8165 100.629 71.4186 97.1659L72.0263 98.2066C72.1766 98.3192 72.3593 98.38 72.5472 98.38C72.735 98.38 72.9178 98.3192 73.068 98.2066C73.2851 97.6787 73.2851 97.0866 73.068 96.5588V95.7783C73.874 94.5269 74.7736 93.3382 75.7592 92.2225C76.801 90.8349 77.6691 89.3605 78.624 87.9729C80.5865 84.6672 82.3546 81.2502 83.9196 77.7393C85.6844 73.8024 87.249 69.779 88.6074 65.6844C90.2106 60.9782 92.398 56.4913 95.1183 52.3286C95.2074 52.1594 95.3305 52.0105 95.4799 51.8911C95.6292 51.7717 95.8017 51.6845 95.9864 51.6348H96.8546C97.0557 56.0136 97.7844 60.3523 99.0249 64.5569C99.5717 66.6348 100.42 68.6217 101.542 70.4543C106.838 79.1269 117.95 77.826 125.85 73.9233C134.105 69.2209 140.689 62.0673 144.688 53.456L145.122 52.6755C147.379 48.3392 150.504 40.9675 155.626 39.3197C157.618 38.5659 159.761 38.2983 161.877 38.5392L166.044 39.4064L170.818 40.4471C171.426 40.4471 173.162 35.8507 173.336 35.417C174.465 32.8152 176.461 28.3055 174.985 25.7037ZM56.921 54.8436C56.5765 53.2021 56.1417 51.5808 55.6188 49.987C55.0962 47.9679 54.7476 45.9079 54.5771 43.8294C53.8316 39.7907 54.1916 35.6259 55.6188 31.7745C56.5905 30.238 57.8585 28.91 59.3489 27.8678C60.8393 26.8256 62.5223 26.0899 64.3 25.7037C69.1397 24.5801 74.0895 23.9984 79.0581 23.9692C78.4504 23.9692 76.8878 26.3108 76.4537 26.8312C75.4575 27.838 74.5295 28.91 73.6757 30.04L68.1197 38.7126L56.921 55.1905C56.921 55.1905 57.0078 54.8436 56.921 54.8436Z" fill="white"/>
<path d="M35.1872 46.7278L26.1712 40.9675L20.9294 49.2414L12.857 44.0048L7.09103 53.0117L16.1069 58.772L21.3488 50.4982L29.4212 55.7348L35.1872 46.7278Z" fill="white"/>
</svg>
