<svg id="Layer_1" data-name="Layer 1" xmlns="http://www.w3.org/2000/svg" viewBox="0 0 15 15"><path d="M6.1,6.12c-.28.4-.56.81-.83,1.22,0-.12-.09-.25-.13-.37a2.36,2.36,0,0,1-.08-.45,1.93,1.93,0,0,1,.12-.9,1.08,1.08,0,0,1,.63-.44,5.46,5.46,0,0,1,1.1-.13s-.16.17-.2.21l-.2.24Z" style="fill:#6c757d"/><path d="M13.64,0H1.36A1.36,1.36,0,0,0,0,1.37V13.63A1.36,1.36,0,0,0,1.36,15H13.64A1.37,1.37,0,0,0,15,13.63V1.37A1.37,1.37,0,0,0,13.64,0ZM1.91,6.49l.5.32.32-.51.56.36-.35.55-.51-.32-.32.51L1.56,7Zm12-.6s-.15.37-.19.37l-.35-.07-.31-.06a.94.94,0,0,0-.47,0c-.38.13-.61.67-.78,1l0,.05a3.43,3.43,0,0,1-1.41,1.53,1.34,1.34,0,0,1-1.8-.26,1.72,1.72,0,0,1-.19-.44,3.51,3.51,0,0,1-.16-1H8.17a.2.2,0,0,0-.07.06,5,5,0,0,0-.48,1,8.83,8.83,0,0,1-.35.9,5.74,5.74,0,0,1-.4.78,3.45,3.45,0,0,1-.2.32s-.21.24-.21.26l0,.06a.15.15,0,0,1,0,.13.08.08,0,0,1-.07,0l0-.08a2.55,2.55,0,0,1-2,.71A6.23,6.23,0,0,1,2.68,11a3.77,3.77,0,0,1-.49-.17h0c0-.08,0-.11.12-.1A5.91,5.91,0,0,0,4,10.63,4.48,4.48,0,0,0,5.29,10a6.9,6.9,0,0,0,.59-.43l-.42-.91-.36.41a2,2,0,0,1-1.87.79,1.31,1.31,0,0,0-.35,0,1.44,1.44,0,0,0-1.11.86,5.79,5.79,0,0,0-.5,1.05c-.05.1-.14.24-.16.07a2.48,2.48,0,0,1,0-.54,5.7,5.7,0,0,1,.4-1.94,1.36,1.36,0,0,1,1.06-.89,1.94,1.94,0,0,1,.58.15,1.49,1.49,0,0,0,.45.07h.11a1.28,1.28,0,0,0,.63-.32A2.94,2.94,0,0,0,4.67,8L5,7.59a8,8,0,0,1-.36-1.75A2.45,2.45,0,0,1,4.84,4.5a1.56,1.56,0,0,1,1.29-.65c.5-.06,1,0,1.52,0a2.54,2.54,0,0,0,1.29-.5s0,.11,0,.14,0,.13,0,.19.05.23.06.35.07.43-.05.56a.72.72,0,0,1-.2.14A6.13,6.13,0,0,0,8,5.2a4.41,4.41,0,0,0-.87,1L6.29,7.49l-.64.91c.11.35.24.67.37,1l0,.06a4.27,4.27,0,0,0,.71-.89c.09-.16.32-.62.65-1.4l.4-.87A1.08,1.08,0,0,1,7.92,6a1.44,1.44,0,0,1,.18-.25,1.59,1.59,0,0,1,.27-.24l.05,0a.22.22,0,0,1,.12.11.24.24,0,0,1,0,.16l0,.22a2.17,2.17,0,0,0,.26,1.34.87.87,0,0,0,.64.37,1.38,1.38,0,0,0,.63-.11,2.82,2.82,0,0,0,.79-.49,2.17,2.17,0,0,0,.6-.68c.08-.14.12-.29.19-.43a1.05,1.05,0,0,1,.12-.21l.06-.08.1-.11,0,0-.16-.16a2.73,2.73,0,0,1,.1-.56L12,4.5l.15-.26.3.2.44.21.57.19c.14,0,.53.15.63.32S14,5.7,13.93,5.89Z" style="fill:#6c757d"/></svg>