<svg xmlns="http://www.w3.org/2000/svg" width="481" height="480" viewBox="0 0 481 480"><path fill-rule="evenodd" d="M67.7 10.8 57 21.5V52h2.8c1.5 0 4.5-1 6.7-2.3l4-2.3.3-11.1.3-11.1 12.7-12.6L96.5 0h-18zm96.2 6-11 17.5c-.3.5-7-.2-14.8-1.4-17-2.7-16.5-2.9-10.3 6.4l5 7.4 13.4 2.1a68 68 0 0 0 14 1.4L172.4 29l14.1-24.7L189 0h-14.9zM290.1 3.3c-.9 2.8-7.4 27.3-10.4 39.2-1.5 6-.7 5.6-25.5 15-8.5 3.2-8.5 3.3 2.7 7.5l8.3 3.2L277 64c14-5.2 12.8-4.2 15.2-13.1C297 32.7 305 1.2 305 .6c0-.3-3.1-.6-7-.6h-6.8zm85.2 8.9a279 279 0 0 0-8.2 13c-.3.6 10.8 6.8 12.2 6.8.4 0 18.3-26.3 21-30.7.5-1-1.3-1.3-8.2-1.3h-9zm25.2-4c-4.5 7.2-4.7 6.2 2.9 13.8l6.5 6.4V65l10.5 21 10.6 21 2.7-1.5a59 59 0 0 0 5.7-4l3-2.5-9.3-18.3-9.2-18.2V22.6l-9.9-10-9.9-10zM94 8.3c-5.2 5.3-5.7 3.7 6.5 22.3C125.4 68.4 131 77.2 131 78.2c0 .6-3 7.6-6.6 15.5-7.7 17-7.9 16.2 2.7 11.7 9.3-3.9 20-19.3 19.9-28.7 0-2-45.6-72.2-47.1-72.5C99 4.1 96.5 6 94 8.4m213 1.8-2 7.2c-1.7 5-1.2 6.2 6.2 18.3 10.3 17 7.6 15.7 25.8 12.8l20.5-3.4 5-1 20.8 10.5c25 12.6 23.3 12.4 22.9 2.6l-.3-7.8-20-10-19.8-9.8-16.3 2.4-19.3 2.7c-2.9.4-3.3-.2-11.9-14.2-9.7-16-10-16.3-11.6-10.2m-121.7 4.5-4.2 7.7 4.6 18.2 4.6 18.2 17 6.7a1768 1768 0 0 1 69 27.4c.4.4-.2 9.6-1.3 20.4-1.2 11-1.9 20-1.5 20.4.6.7.3 1 8.8-9.4l6.7-8.2 1.5-12.8A264 264 0 0 0 292 87v-3.5l-22.8-9L217 54.1c-16.8-6.5-13.8-2-22.4-33.6l-3.2-11.7c-.9-3-1.9-2-6.1 6M80.3 47l-17.2 9H22.7l-10 9.8-10 9.8L9 79.4l6.3 3.7 6.7-6.6 6.8-6.5H65l20.2-10c24.5-12.2 23-10.8 18.7-17-4.3-6.4-3.4-6.5-23.6 4m275 2.4-5.3 1.1-8.5 12.7c-10.2 15.3-11.8 6.3 10 56.5a535 535 0 0 1 17.8 43.3l-16 13c-17.7 14.2-17.2 13.4-8.6 12.6 18.6-1.8 16.4-1 30-11.7 14.9-12 15.8-4-6.7-55.1a638 638 0 0 1-18.6-44.5c.3-.7 4.2-7 8.7-13.9 10.1-15.5 9.9-16.8-2.9-14m73.5 7.3c-1.4 1.3-.7 5.6 1.5 9.4l2.2 3.9h22.1l12 12.5C481 97.3 480 97 480 86.7v-8.3l-11.3-11.2L457.3 56h-14c-7.7 0-14.3.3-14.6.7m-371.5 17-7.2.4-10 20-10.1 20.1 1.1 7.2a398 398 0 0 1 4 28.6c0 2.2-2 3.7-14.5 11.4C3.4 172 3.8 171 15 174l9 2.3 13.5-8.3c15-9.2 14.5-8.6 12.6-18.6-.6-2.6-2-11-3.1-18.5L44.8 117l10.6-21.2a156 156 0 0 0 9.9-21.7c-.5-.3-4-.5-8-.3M201 78.4a70 70 0 0 0-12.8 6.2c-.4 1.1 10.4 109.5 11 109.9 1.7 1.6 13.7 1.4 13.7-.2l-2-22.3-7.4-78.9c.2-.2 6.7-3 14.6-6.1 17-7 16.9-6.7 6.4-10.7-10.3-4-8.6-4.2-23.5 2M0 87.6v8.6l11.8 7.6c15.2 9.9 14.4 9.8 18 2.5l3.1-6-16-10.6A358 358 0 0 0 .6 79a35 35 0 0 0-.5 8.5m452 10.6-31.8 21-18.4 12-14.4-6.5c-19-8.7-18-9-12.6 3.3l3.7 8.4 12.4 5.4 12.3 5.4 11.1-7.1 34.2-22c12.6-8.3 24-15.6 25.3-16.2 3.2-1.6 2.8-2.8-2.6-8-5.7-5.8-3.1-6.4-19.2 4.3m-330.6 14-43.1 19-13-8.5c-16.5-10.8-17.6-10.7-15.6 1.5l.8 5.2 13.2 8.9L77 147l16.3-7.1c50.7-22.1 69-29.8 69.8-29.4.5.3 6.1 7 12.5 15 15.6 19.3 14.6 19 13 4-1.2-12.7-.4-11-12-25.3-10.8-13.6-4-14.6-55.1 8m166.1 11.5c-13.7 16.9-29.4 36-34.7 42.4-11.5 13.8-10.8 11.7-5.6 18.4 5.6 7-2.2 14.8 53.1-53.5 8.2-10.2 15.6-19.1 16.3-19.9 1-1.1 3.6-.3 15.8 5 17.2 7.4 16.7 7.5 11.9-3.4l-3.8-8.6-12.7-5.6c-7-3-13.3-5.5-14-5.5s-12.6 13.9-26.3 30.7m154 3c-3.9 2.5-7.3 4.8-7.7 5.2-.8.7-5.2 27-4.7 27.5 1 .8 48.1 27.8 49.4 28.3s1.5-.7 1.5-6.5V174l-4.2-2.9-17.3-10.7-13.4-8.1c-.2-.2.7-6.9 1.9-14.9 2.7-17.3 3-16.6-5.6-10.8m-329 9.2-8 3.8-5.9 13.2c-5 11.3-5.6 13.4-4.4 14.6l41.4 34c22 18 40.8 33.4 41.7 34.3 1.9 1.6 12.9-5.5 12.7-8.2a795 795 0 0 0-39-32.6c-45.7-36.7-41.5-31-34.6-46.8 7.3-16.7 7.2-16.2 5.6-16.1-.8 0-5 1.7-9.5 3.8m101 19.2 1.2 12.2.6 6.8 10.7 13.2c5.8 7.3 13.5 16.8 17.1 21l6.5 7.9 5.2-.5c6.5-.5 6 0 6.9-8l.7-6.7h-3.1c-2.8 0-4.9-2.2-23.8-25-23.9-29-22.9-28-22-20.9m63.1 11c-8 9.5-7.7 8.5-10.5 36.9a696 696 0 0 1-2.6 24.1c-.4 2.2.2 3.2 3.7 5.8 5.4 4 5.7 4 11.3-1l4.7-4.2-2.2-2.3-2.2-2.3 1.7-18.8c1.9-21 3.4-37 4.1-42.6.7-5.3-.3-4.7-8 4.4M0 181.7v7l23.8 6.3c27.4 7.2 24.3 5 31.1 23 6.2 16.2 6.2 16.2 10.6 5l3.3-8.4-3-8-4.5-12.3c-1.3-3.8-1.9-4.3-6.6-5.6a1787 1787 0 0 0-51.4-13.3l-3.3-.7zm438.3 3.6c-19.6 5-16.4 1.6-27.3 29.7-21.4 55-23.7 60.5-26.1 60.8-2.4.4-34.2-2.6-37.1-3.4-3.7-1-1.5 1.6 7 8.7l8.6 7.3 16 1.8c8.9 1 16.4 1.4 16.7 1 .6-.6 22-54.5 31.6-79.6l3.9-10 13-3.3c33.3-8.7 31.3-7.4 20.7-13.1-9-5-7-5-27 .1m-354 3c-.9 1-17.2 42-30.3 75.8l-5.2 13.6-17.7 4.8-20.9 5.7c-4.2 1.2-3.5 2.1 4.8 6.3 8.6 4.3 7.5 4.4 27.2-.6 19.8-5 15.6 0 29.6-36C93.6 202.3 93.2 203 95.5 203l20.5 2c22.1 2.3 21.2 2.9 10.1-6.4-9.8-8.1-9.1-7.9-26.6-9.6-6-.6-11.7-1.3-12.6-1.6q-1.5-.3-2.6.8m308.6-.8c-.2.2-8.3 1.1-17.9 2a3162 3162 0 0 0-60.5 6.2c-31.7 3.1-28.8 2.6-29.6 5.4-.4 1.4-.7 4.5-.8 6.9l-.1 4.4 9.3-.6c5-.4 13.7-1.1 19.2-1.7l45-4.4c7.7-.8 17.4-1.8 21.6-2.1l7.6-.7 5.9 14.6c6.8 16.7 6.8 16.7 11.3 5.7l3.4-8.3-4.8-11.6c-5.8-14.6-7.7-17.6-9.6-15.8m-233.4 9.4 9.1 8 7.1 6.2 9.4.9 27.3 2.7 17.8 1.9 3.4-4c4.2-5 4.3-5-1.1-11l-4.5-5-2 2.4c-2.2 2.6-1.2 2.6-24.5 0-44.2-4.6-44.8-4.7-42-2M316 213.5l-6.1.9c-4.8.6-18.7 10.8-38.9 28.4-7.5 6.6-7.5 6.6-7.2 11 .5 5.8.6 5.9 8 7 7 .9 7.2.8 7.2-2.9 0-2.3 3.7-5.7 25-23 28-23 29.1-25.1 12-21.4m-114.1 5-.3 3c0 1.6-7.4 8.2-25.1 22.8-27 22.2-27.9 23.2-21.9 22.3 2.2-.3 7.4-1 11.8-1.3l7.8-.7 15-11.8c8.2-6.6 17.9-14.5 21.5-17.6l6.5-5.8-.7-4.5c-.4-2.5-1-4.8-1.4-5.2-1-1.2-13-2.2-13.2-1.2m93.7 28c-7 5.6-7.4 4.3 5.2 14.5 26.3 21 63 50.7 66 53.4l3.3 3-6 13.5c-8.4 19-8.7 18.1 4 12.3l7.7-3.5 5.6-12.7c3.1-7 5.6-13 5.6-13.6s-6.8-6.7-15.2-13.5l-60-49.3-10.6-8.7zm-93.5.6-5.2 4.2 2.4 2.3 2.3 2.4-1.8 18.2-3.2 32.2c-1.7 16.2-1.7 16.4 3.6 10.5 11.6-13.1 11.2-12.3 12.6-26.6l2.8-25.4c1.8-16.5 2-15.4-2.8-19-5.2-3.7-4.5-3.8-10.7 1.2M79 249.8c-.6 1.5-2.2 5.4-3.4 8.8l-2.4 6 3.5 8.5 7.7 18.9 24.2-2.4 50.5-5c14.6-1.5 28.8-3 31.5-3.4l5-.7.3-6.9.3-6.9-7.3.7-62.8 6.1-23 2.1-9.5.7-6-14.7c-6.2-15.3-6.9-16.3-8.6-11.9m336.2 5.6c-3.8 10.2-3.9 8.9 1.3 22.6l4.3 11.5 6.4 1.7c58 15.4 52.9 14.8 52.9 6.1v-6.7l-14.7-3.9c-36.5-9.5-33.7-8.4-35.6-13.8-10.5-29-10.3-28.8-14.6-17.5m-192.4 8.4c-3.2.5-3.3.7-4.1 8.6l-.6 5.7h3c2.5 0 4.2 1.5 12.3 11.3 38.7 46.8 34.2 42.6 33.3 31-1-14-1-14-12-27.9-23.5-30.2-23.3-30-32-28.7m23.7 3.5c-3.5 4.7-3.5 4.9 2 11.3l3.5 4 2.4-2.3 2.4-2.2 14.5 1.5c31 3.4 50.9 5 50.9 4.3 0-.2-3.9-3.8-8.7-7.8l-8.6-7.4-20-2.2-27.7-2.8-7.5-.6zm21.3 16.6c-.5.8.7 13.9 4.4 50.2a751 751 0 0 1 4.6 52c-.3.4-7 3.3-15 6.5-17.2 6.9-16.7 6.2-6.3 10.3 11.3 4.4 36.7-2.5 36.7-10 0-1.7-1.8-20.9-4-42.7s-4.5-45-5-51.6c-1.5-15.3-1.2-14.5-6.2-14.5-2.4 0-5.3-.3-6.4-.6q-2-.4-2.8.4m-139.2 7.6c-5.6.6-10.8 1.6-11.5 2.2l-23.3 18.6a440 440 0 0 0 18.2 44.2c22.5 51 21 43.1 10.7 59.1-9.7 14.9-9.7 16.1 0 14.9 7.2-1 7.5-1.2 16.4-14.4 10-14.7 11.2-7.5-9.9-55.8-21.5-49-21.1-41.3-2.5-56.3 8.5-6.8 15.5-12.7 15.5-13.1 0-1 0-1-13.6.6m70 34.2-32 39.4c-3.8 4.9-3 5-19.5-2.2-16.6-7.3-16-7.5-11.1 3.4 4.4 9.5 3.6 8.9 19.6 15.8l11 4.8 2.1-2.2c3.8-3.9 67.5-81.8 68-83.2.7-1.6-6.5-11.4-8.2-11.5-.7 0-14.2 16-30 35.6M0 298.2v7.3L17.3 316l17.2 10.6-.2 5.7c-.1 3-.9 9.8-1.8 14.8s-1.3 9.4-1 9.7c.7.8 14.4-8.7 15.4-10.7 2-4 4.5-25.2 3-26.5A1130 1130 0 0 0 .5 291c-.3 0-.5 3.3-.5 7.3m443.6 12.6c-7 4.4-13.3 8.4-13.8 9s.1 7.7 2.1 20c1.7 10.6 3.1 20.1 3.1 21.2 0 1.2-4.7 11.5-10.4 23s-10.1 21-9.8 21.2c.4.2 4.1.2 8.3 0l7.5-.5 9.9-19.8 9.8-19.8-2.7-18.7c-1.5-10.3-2.5-19-2.1-19.3s6.7-4.5 14.1-9.2c17-10.6 17-10-.7-14.3-2-.5-5 1-15.3 7.3M65.5 339.6l-35.7 23A435 435 0 0 0 4 380c0 2.6 10 10.2 12 9.1 1.1-.6 15.3-9.8 31.3-20.4l30.2-19.8a89 89 0 0 1 16 6.2c17 7.8 16.7 7.8 12.4-2.7-4-9.9-2.9-8.7-15.9-14.4-13.8-6-12.5-6.2-24.5 1.7M383 341l-41.2 18a432 432 0 0 1-23.7 9.9c-.5 0-6.7-7-13.6-15.5-7-8.5-12.9-15.5-13.2-15.5-.7 0 .6 16.2 1.6 21.1 1 4.2 19.7 28.3 21.5 27.6l73.6-32.4c15.3-6.9 12.3-7.1 27.2 2.5 16.2 10.5 17.6 10.4 15.5-1.2l-1-5.8-12.6-8.4c-15.1-10-11.6-10-34.1-.3m-184.1 13-7.6 9.3-1.2 10.6-1.7 16.2-.6 5.5 24.4 9.7c23.8 9.5 46 18.1 58.6 23 8.1 3 6.4-1.2 17.3 41 1.3 4.9 1.8 4.5 6.9-4.8l4.2-7.6-4.4-17.5c-2.3-9.6-4.5-17.8-4.8-18.3s-19.6-8.3-43-17.5c-50.3-19.7-44.1-14.4-41.8-35.5 2.7-25.6 2.9-25.2-6.3-14m253.8 15.2a30 30 0 0 0-4.6 10.1 804 804 0 0 0 30.3 20.3c1.4.5 1.6-.6 1.6-8V383l-11.6-7.5c-14.2-9.2-13.9-9.1-15.7-6.2m-101.3 5.4-8.1 3.5-5.2 12.4c-3.1 7.3-5 13-4.5 13.7a5096 5096 0 0 0 45.8 70.5c1 1 2.3.2 6.3-4l5.2-5.2-21-31.8c-11.5-17.5-20.9-32-20.9-32.4s3-7 6.5-15c3.6-8 6.5-14.7 6.5-14.9 0-1-3 0-10.6 3.2m-308.6 1.7c-6 4-6.4 1.8 4.7 23.2l9.5 18.2v39.8l9.4 9.4c10.5 10.4 10 10.4 14.1 2.7l3-5.5-6.3-6.4-6.2-6.3v-35.2l-10.5-21.6c-11.4-23.5-10.9-23-17.7-18.3M0 392.3v8.2l11.3 11.3L22.5 423h14.7c17.2 0 17.7-.3 13.3-9l-2.5-5H25l-11.8-12.5C-.7 381.7 0 381.9 0 392.3M457.5 403l-6 6H416l-21.2 10.6-21.7 11c-.4.4 7 11.4 7.7 11.4.3 0 8.7-4.3 18.8-9.5l18.2-9.5h39.7l9.8-9c11.4-10.8 11-9.7 4.3-13.8-7-4.2-7.2-4.2-14.1 2.8m-254.2 12.4c-14 5.2-12.7 3.8-16.7 19.2l-11.6 45c0 2.6 14.4-.4 15.2-3.1L196 454c2.8-10.7 5.4-20.3 5.8-21.3q.8-1.8 15.2-7.3c15.5-5.9 17.4-7 14.4-8l-16.7-6.3zm-129 1.7c.4 1.7.7 5.3.7 8v4.9l19.8 10 19.9 9.9 12.9-2 25-3.6 8.2 13.2c11.8 19 10.7 18 12.7 11 .9-3.3 2-7.3 2.6-9 .9-2.7.2-4.1-7-16-10-16.3-8-15.4-25.8-12.6l-20.6 3.2-5.8.9-21-10.5c-23.8-12-22.3-11.5-21.5-7.4m339.9 12.2-4.3 2v22.2L397.5 466c-14.8 14.7-14.5 14-4.8 14h7.8l11.7-11.7 11.8-11.8v-13.2c0-17.9-.6-18.7-9.7-14M306 453.5c-16.5 28.6-16 26.5-7.2 26.5h7l10.7-17.5c12.8-21 9.7-18.7 23-16.5 16.1 2.6 18.4 3 18.4 2.4 0-1.5-10.4-15.4-11.9-15.8-2.6-.8-20.9-3.6-23.5-3.6-2 0-4.2 3.2-16.5 24.5m-207.4-3.3a287 287 0 0 0-19 29.3c.4.3 4.3.5 8.7.5h8.1l7.8-12c10-15.5 9.8-14.1 2.8-17.9l-6-3.1z"/></svg>