<svg width="40" height="40" viewBox="0 0 40 40" fill="none" xmlns="http://www.w3.org/2000/svg">
<rect x="11" y="11" width="18" height="18" fill="#D9D9D9"/>
<path fill-rule="evenodd" clip-rule="evenodd" d="M15.988 5.33371C15.5821 5.67959 15.3792 5.85256 15.1624 5.99782C14.6656 6.33082 14.1076 6.56194 13.5208 6.67779C13.2648 6.72834 12.999 6.74954 12.4675 6.79196C11.1318 6.89856 10.464 6.95184 9.90684 7.14864C8.61817 7.60381 7.60454 8.61744 7.14937 9.90611C6.95257 10.4633 6.89929 11.1311 6.79269 12.4667C6.75027 12.9983 6.72907 13.2641 6.67852 13.5201C6.56267 14.1069 6.33156 14.6649 5.99856 15.1617C5.85329 15.3784 5.68034 15.5814 5.33444 15.9873C4.46537 17.0071 4.03082 17.5169 3.77602 18.0501C3.18664 19.2833 3.18664 20.7166 3.77602 21.9498C4.03084 22.4829 4.46537 22.9928 5.33444 24.0126C5.68029 24.4184 5.85329 24.6214 5.99856 24.8381C6.33156 25.3349 6.56267 25.8929 6.67852 26.4798C6.72907 26.7358 6.75027 27.0016 6.79269 27.5331C6.89929 28.8688 6.95257 29.5366 7.14937 30.0938C7.60454 31.3824 8.61817 32.3961 9.90684 32.8513C10.464 33.0479 11.1318 33.1013 12.4675 33.2079C12.999 33.2503 13.2648 33.2716 13.5208 33.3221C14.1076 33.4379 14.6656 33.6691 15.1624 34.0021C15.3792 34.1473 15.5821 34.3203 15.988 34.6661C17.0078 35.5353 17.5177 35.9698 18.0508 36.2246C19.284 36.8139 20.7173 36.8139 21.9505 36.2246C22.4837 35.9698 22.9935 35.5353 24.0133 34.6661C24.4192 34.3203 24.6222 34.1473 24.8388 34.0021C25.3357 33.6691 25.8937 33.4379 26.4805 33.3221C26.7365 33.2716 27.0023 33.2503 27.5338 33.2079C28.8695 33.1013 29.5373 33.0479 30.0945 32.8513C31.3832 32.3961 32.3968 31.3824 32.852 30.0938C33.0487 29.5366 33.102 28.8688 33.2087 27.5331C33.251 27.0016 33.2723 26.7358 33.3228 26.4798C33.4387 25.8929 33.6698 25.3349 34.0028 24.8381C34.148 24.6214 34.321 24.4184 34.6668 24.0126C35.536 22.9928 35.9705 22.4829 36.2253 21.9498C36.8147 20.7166 36.8147 19.2833 36.2253 18.0501C35.9705 17.5169 35.536 17.0071 34.6668 15.9873C34.321 15.5814 34.148 15.3784 34.0028 15.1617C33.6698 14.6649 33.4387 14.1069 33.3228 13.5201C33.2723 13.2641 33.251 12.9983 33.2087 12.4667C33.102 11.1311 33.0487 10.4633 32.852 9.90611C32.3968 8.61744 31.3832 7.60381 30.0945 7.14864C29.5373 6.95184 28.8695 6.89856 27.5338 6.79196C27.0023 6.74954 26.7365 6.72834 26.4805 6.67779C25.8937 6.56194 25.3357 6.33082 24.8388 5.99782C24.6222 5.85256 24.4192 5.67961 24.0133 5.33371C22.9935 4.46464 22.4837 4.03011 21.9505 3.77529C20.7173 3.18591 19.284 3.18591 18.0508 3.77529C17.5177 4.03009 17.0078 4.46464 15.988 5.33371ZM27.2898 16.4385C27.8195 15.9088 27.8195 15.0499 27.2898 14.5202C26.7602 13.9905 25.9012 13.9905 25.3715 14.5202L17.2878 22.6039L14.6298 19.9459C14.1 19.4163 13.2412 19.4163 12.7115 19.9459C12.1818 20.4756 12.1818 21.3344 12.7115 21.8643L16.3286 25.4814C16.8583 26.0111 17.7172 26.0111 18.247 25.4814L27.2898 16.4385Z" fill="#1D9BF0"/>
</svg>
