<svg xmlns="http://www.w3.org/2000/svg" width="1000" height="1000" viewBox="0 0 1000 1000"><path fill-rule="evenodd" d="M566.57 272.52c-1.29 1.39-2.83 4.42-3.43 6.75-.79 3.08-.48 69.18 1.14 243.73 1.22 131.73 2.54 236.8 2.94 233.5s3.44-101.4 6.77-218 6.54-221.69 7.13-233.53c1.18-23.62.66-28.28-3.64-32.59-3.22-3.21-7.86-3.16-10.91.14m-93.07 11.51c-74.36 4.22-233.08 20.52-301.76 30.98-17.3 2.64-21.4 4.98-22.45 12.86-.47 3.53-.16 4.42 2.5 7.08 3.71 3.7 5.42 3.77 17.45.65 32.08-8.33 197.02-30.23 351.26-46.64 11-1.17 20.67-2.38 21.5-2.68 6.2-2.3-40.51-3.84-68.5-2.25m131.5.66c-4.36 2.26-6.41 6.3-5.54 10.94.94 5 4.63 6.83 16.8 8.3 30.23 3.62 112.15 23.8 223.24 54.96l14 3.93-3.25-2.73c-17.57-14.77-113.45-47.1-212.37-71.6-22.74-5.63-28.14-6.26-32.88-3.8m-480.43 59.83c-5 5.4-5 .24-.1 176.4 2.53 90.51 4.92 167.28 5.31 170.58.41 3.44 2.34-57.56 4.52-143 2.09-81.95 4.27-158.93 4.84-171.08 1.13-24.16.62-28.75-3.66-33.04-3.22-3.22-7.85-3.16-10.91.14m740 0c-5.03 5.42-5.03.18-.1 176.43 2.53 90.5 4.92 167.25 5.31 170.55.42 3.44 2.34-57.58 4.52-143 2.1-81.95 4.27-158.93 4.84-171.08 1.13-24.16.62-28.75-3.66-33.04-3.23-3.22-7.86-3.16-10.91.14m-332.07 58.5c-7.7.96-21.65 2.68-31 3.82a275319 275319 0 0 0-190 23.16c-155.58 18.97-164.92 20.15-166.72 21.12-4 2.13-2.96 9.3 1.5 10.41 1.22.3 15.27-1.05 31.22-3.02a73596 73596 0 0 1 94.25-11.54l69.25-8.43c114.03-13.9 162.86-19.84 185.5-22.54a933 933 0 0 0 22.26-2.87c8.41-1.33 11.59-5.78 7.24-10.13-2.39-2.39-4.28-2.39-23.5.02m55.3 3.38a4.88 4.88 0 0 0-1.1 7.83c1.07.96 33.38 9.62 79.3 21.25l128.57 32.58C822.67 475.18 847 481 848.62 481c1.64 0 3.52-.54 4.18-1.2 1.74-1.74 1.47-5.25-.55-7.08-1.02-.92-46.99-13.05-110.25-29.1-161.33-40.9-151.53-38.54-154.2-37.22m-49.3 17.73c-3.3.48-32.32 4.02-64.5 7.86s-63.9 7.67-70.5 8.5A56964 56964 0 0 1 244 459.65c-29.99 3.56-35 4.68-35 7.85 0 .8 1.01 2.1 2.25 2.9 1.98 1.28 4.06 1.23 17.25-.41 8.25-1.03 24.9-3.05 37-4.5l70-8.43c82.11-9.9 127.02-15.3 138-16.6 20.68-2.43 69.6-8.35 74.24-9 4-.55 7.26-2.55 7.26-4.46 0-.47-.7-1.56-1.57-2.43-1.72-1.71-5.43-1.82-14.93-.44m51.17 1.54c-1.12 1.11-.75 5.02.58 6.1.69.54 25.77 6.92 55.75 14.16l131.42 31.76c55.85 13.5 77.35 18.31 78.5 17.6 2.09-1.31 2.53-4.67.8-6.1-.76-.64-17.32-5.01-36.8-9.73C657.16 440.02 594.45 425 592.55 425c-1.22 0-2.52.3-2.88.67M489.4 581.89c-4.44 2.7-10.09 11.7-21.07 33.5-5.3 10.51-11.3 21.59-13.35 24.61-5.23 7.72-12.01 13.64-19.81 17.3-6.03 2.84-7.55 3.13-15.68 3.03-9.77-.12-16.39-1.95-26.1-7.22-6.73-3.64-6.99-2.45-.5 2.31 14.36 10.55 35.6 14.62 46.88 9 6.54-3.26 16.76-14.16 21.18-22.6 7.98-15.23 21-32.2 27.14-35.37 6.9-3.57 9.15-1.7 25.82 21.55 13.7 19.1 28.61 34.15 38.96 39.32 10.37 5.16 11.75 4.58 2.88-1.22-21.15-13.8-36.68-34.66-47.85-64.23-8.1-21.48-10.97-24.57-18.5-19.98m-301.19 5.5c-2.13 2.44-4 6.45-5.74 12.36-7.57 25.58-16.68 43.07-32.88 63.13-7.52 9.3-5.67 8.6 6.2-2.4 10.09-9.34 18.75-20.44 29.87-38.27 5.24-8.42 10.57-15.98 11.84-16.8 2.05-1.36 2.7-1.35 6 .03 5.48 2.3 14.49 12.25 23.94 26.48 9.54 14.36 17.03 22.04 25.15 25.75 11.78 5.4 29.73 1.22 40.73-9.47 2.66-2.59 5.75-6.5 6.88-8.7 1.99-3.89 1.85-3.81-5 2.76-9.28 8.91-17.47 12.87-26.67 12.87-14.37 0-23.54-7.55-41.5-34.14-19.2-28.47-25.46-35.53-32.4-36.66-2.8-.46-3.7-.03-6.42 3.07m152.18 2.5c-4.43 2.7-10 11.66-21.87 35.15-10.52 20.83-16.68 30.32-22.76 35.08-14.3 11.2-31.8 11.83-50.75 1.83l-7.52-3.97 4.5 4.15c8.74 8.08 28.9 14.86 40.19 13.52 10.34-1.22 20.76-9.9 29.02-24.16 11.87-20.5 25.6-37.66 31.29-39.09 3.46-.87 4.65.36 10.67 10.95 15.29 26.95 26.96 40.48 40.34 46.77 5.62 2.65 17.98 5.24 19.81 4.15.45-.27-2.18-2.02-5.86-3.9-8.33-4.28-16.33-10.4-23.49-18.01-11.19-11.89-17.62-22.8-25.05-42.48-8.12-21.51-10.97-24.6-18.52-19.99m461.05-.03c-4.94 3-12.66 12.39-24.67 29.97-14.55 21.28-19.94 27.71-27.54 32.83-14.7 9.9-30.39 7.18-45.47-7.9-3.17-3.17-5.77-5.4-5.77-4.93 0 .46 1.77 3.3 3.94 6.33 7.3 10.21 20.67 16.92 34.13 17.14 12.89.2 23.82-7.99 36.44-27.31 8.27-12.66 21.42-26.4 26.3-27.46 4.45-.97 5.34-.06 15.22 15.63 11.7 18.57 18.55 27.28 30.1 38.26 12.78 12.15 15.8 13.84 7.84 4.4-14.41-17.12-25.43-36.92-31.63-56.83-4.17-13.38-6.45-18.26-9.55-20.43-2.94-2.06-5.61-1.98-9.34.3m-152.47 5.15c-1.55 1.66-4.05 6.27-5.56 10.25-6.95 18.33-8.78 22.66-12.13 28.73-9.92 18-24.18 32.46-39.68 40.27-3.66 1.84-6.43 3.58-6.14 3.86.28.28 3.51.15 7.18-.29 19.08-2.3 33.73-16.2 53.18-50.48 6.02-10.6 7.21-11.82 10.7-10.94 5.77 1.45 19.41 18.54 31.42 39.38 4.96 8.62 13.75 17.95 20.05 21.3 11.43 6.05 36.5.43 49-11l4.5-4.11-7.52 3.97c-18.66 9.85-36.6 9.27-50.5-1.64-6.32-4.94-12.26-14.04-22.98-35.2-12.03-23.72-17.51-32.55-21.9-35.22-4.3-2.62-6.35-2.38-9.62 1.12"/></svg>